<svg width="316" height="64" viewBox="0 0 316 64" fill="none" xmlns="http://www.w3.org/2000/svg">
<path opacity="0.3" d="M39.1035 36.2073C39.1035 48.0138 30.537 52.1349 19.9636 52.1349C9.39009 52.1349 0.823608 48.0138 0.823608 36.2073C0.823608 24.4009 19.9758 9.37897 19.9758 9.37897C19.9758 9.37897 39.1035 24.3948 39.1035 36.2073Z" fill="#2BB673"/>
<path d="M19.266 50.3267L19.4618 40.4477L27.6214 28.2222L19.4924 38.8966L19.5811 34.4543L25.2044 25.6094L19.6025 33.2764V33.2764L19.7616 25.2881L25.7826 18.2483L19.7861 24.0307L19.8871 9.37897L19.2629 28.7759L19.3149 27.9774L13.193 20.3012L19.217 29.5102L18.648 38.4346L18.6296 38.199L11.5745 30.1221L18.6082 39.0343L18.5378 40.151L18.5256 40.1693L18.5317 40.2581L17.0846 62.9011H19.0151L19.2476 51.2079L26.266 42.314L19.266 50.3267Z" fill="#808080"/>
<path opacity="0.3" d="M127.828 36.1646C127.828 47.971 119.261 52.0921 108.688 52.0921C98.1143 52.0921 89.5478 47.971 89.5478 36.1646C89.5478 24.3581 108.7 9.33618 108.7 9.33618C108.7 9.33618 127.828 24.3489 127.828 36.1646Z" fill="#2BB673"/>
<path d="M107.987 50.2839L108.186 40.4018L116.343 28.1763L108.217 38.8507L108.302 34.4084L113.926 25.5665L108.327 33.2335V33.2335L108.486 25.2422L114.507 18.2024L108.51 23.9848L108.608 9.33307L107.987 28.73L108.039 27.9315L101.917 20.2553L107.938 29.4674L107.369 38.3918L107.354 38.1531L100.296 30.0762L107.332 38.9914L107.259 40.1051L107.247 40.1234L107.253 40.2152L105.806 62.8552H107.739L107.972 51.162L114.99 42.2712L107.987 50.2839Z" fill="#808080"/>
<path opacity="0.3" d="M169.969 36.1646C169.969 47.971 161.402 52.0921 150.829 52.0921C140.255 52.0921 131.689 47.971 131.689 36.1646C131.689 24.3581 150.829 9.33618 150.829 9.33618C150.829 9.33618 169.969 24.3489 169.969 36.1646Z" fill="#2BB673"/>
<path d="M150.131 50.2839L150.327 40.4018L158.483 28.1763L150.358 38.8507L150.446 34.4084L156.07 25.5665L150.468 33.2335V33.2335L150.627 25.2422L156.648 18.2024L150.651 23.9848L150.752 9.33307L150.128 28.73L150.18 27.9315L144.058 20.2553L150.082 29.4674L149.51 38.3918L149.495 38.1531L142.44 30.0762L149.473 38.9914L149.403 40.1051L149.388 40.1234L149.397 40.2152L147.947 62.8552H149.88L150.113 51.162L157.131 42.2712L150.131 50.2839Z" fill="#808080"/>
<rect x="158.428" y="45.5203" width="1" height="17.5184" fill="#808080"/>
<path d="M162.963 47.7538C162.99 53.8727 158.679 58.8657 158.679 58.8657C158.679 58.8657 154.323 53.9216 154.295 47.7935C154.268 41.6654 158.578 36.6816 158.578 36.6816C158.578 36.6816 162.935 41.6195 162.963 47.7538Z" fill="#2BB673"/>
<rect x="151.844" y="45.5203" width="1" height="17.5184" fill="#808080"/>
<path d="M156.382 47.7538C156.409 53.8727 152.098 58.8657 152.098 58.8657C152.098 58.8657 147.742 53.9216 147.714 47.7935C147.687 41.6654 151.997 36.6816 151.997 36.6816C151.997 36.6816 156.351 41.6195 156.382 47.7538Z" fill="#33CCB4"/>
<rect x="144.713" y="45.5203" width="1" height="17.5184" fill="#808080"/>
<path d="M149.25 47.7538C149.278 53.8727 144.967 58.8657 144.967 58.8657C144.967 58.8657 140.61 53.9216 140.583 47.7935C140.555 41.6654 144.866 36.6816 144.866 36.6816C144.866 36.6816 149.223 41.6195 149.25 47.7538Z" fill="#2BB673"/>
<rect x="137.786" y="45.5203" width="1" height="17.5184" fill="#808080"/>
<path d="M142.323 47.7538C142.351 53.8727 138.04 58.8657 138.04 58.8657C138.04 58.8657 133.684 53.9216 133.656 47.7935C133.628 41.6654 137.939 36.6816 137.939 36.6816C137.939 36.6816 142.296 41.6195 142.323 47.7538Z" fill="#2BB673"/>
<path opacity="0.3" d="M262.34 36.3879C262.34 48.1943 253.773 52.3154 243.2 52.3154C232.626 52.3154 224.042 48.1943 224.042 36.3879C224.042 24.5814 243.181 9.55951 243.181 9.55951C243.181 9.55951 262.34 24.5723 262.34 36.3879Z" fill="#2BB673"/>
<path d="M242.499 50.5073L242.698 40.6252L250.855 28.3996L242.729 39.0741L242.817 34.6318L248.438 25.7899L242.839 33.4569V33.4569L242.998 25.4656L249.019 18.4258L243.022 24.2112L243.123 9.55951L242.499 28.9534L242.551 28.1549L236.429 20.4818L242.453 29.6907L241.881 38.6152L241.866 38.3765L234.808 30.2996L241.844 39.2148L241.771 40.3315L241.759 40.3468L241.765 40.4386L240.318 63.0786H242.251L242.484 51.3853L249.502 42.4946L242.499 50.5073Z" fill="#808080"/>
<rect x="309.107" y="39.6982" width="1" height="22.9123" fill="#808080"/>
<path d="M315.039 42.62C315.076 50.6327 309.44 57.1524 309.44 57.1524C309.44 57.1524 303.743 50.6847 303.707 42.672C303.67 34.6593 309.306 28.1396 309.306 28.1396C309.306 28.1396 315.002 34.6073 315.039 42.62Z" fill="#2BB673"/>
<path d="M253.779 12.2855L251.76 10.6731L263.056 0.589172H291.692V9.4616L273.137 21.9656L253.779 12.2855Z" fill="#2BB673"/>
<path d="M296.912 6.24611V0.791096H293.112V2.12808L291.692 0.589172L282.416 10.6731L278.784 13.0932L273.155 54.2153L281.645 62.7023H301.372V11.077L296.912 6.24611Z" fill="#CCCCCC"/>
<rect x="251.76" y="10.6732" width="30.6527" height="52.0291" fill="#F2F2F2"/>
<rect x="263.658" y="49.9963" width="5.64776" height="12.7059" fill="#CCCCCC"/>
<path d="M257.61 53.6279V51.6117H255.19V53.6279H257.408H257.61Z" fill="#808080"/>
<path d="M257.408 55.2402H255.19V57.2564H257.61V55.2402H257.408Z" fill="#808080"/>
<rect x="259.222" y="51.6117" width="2.42003" height="2.01618" fill="#808080"/>
<rect x="259.222" y="55.2402" width="2.42003" height="2.01618" fill="#808080"/>
<path d="M274.146 53.6279V51.6117H271.726V53.6279H273.944H274.146Z" fill="#808080"/>
<path d="M273.944 55.2402H271.726V57.2564H274.146V55.2402H273.944Z" fill="#808080"/>
<rect x="275.759" y="51.6117" width="2.42003" height="2.01618" fill="#808080"/>
<rect x="275.759" y="55.2402" width="2.42003" height="2.01618" fill="#808080"/>
<path d="M291.086 13.2951V11.2789H288.666V13.2951H290.885H291.086Z" fill="#808080"/>
<path d="M290.885 14.9074H288.666V16.9236H291.086V14.9074H290.885Z" fill="#808080"/>
<rect x="292.699" y="11.2789" width="2.42003" height="2.01618" fill="#808080"/>
<rect x="292.699" y="14.9074" width="2.42003" height="2.01618" fill="#808080"/>
<path d="M291.086 24.5875V22.5714H288.666V24.5875H290.885H291.086Z" fill="#808080"/>
<path d="M290.885 26.1999H288.666V28.2191H291.086V26.1999H290.885Z" fill="#808080"/>
<rect x="292.699" y="22.5714" width="2.42003" height="2.01618" fill="#808080"/>
<rect x="292.699" y="26.1999" width="2.42003" height="2.01618" fill="#808080"/>
<path d="M291.086 35.88V33.8638H288.666V35.88H290.885H291.086Z" fill="#808080"/>
<path d="M290.885 37.4954H288.666V39.5115H291.086V37.4954H290.885Z" fill="#808080"/>
<rect x="292.699" y="33.8638" width="2.42003" height="2.01618" fill="#808080"/>
<rect x="292.699" y="37.4954" width="2.42003" height="2.01618" fill="#808080"/>
<path d="M291.086 47.1755V45.1593H288.666V47.1755H290.885H291.086Z" fill="#808080"/>
<path d="M290.885 48.7878H288.666V50.804H291.086V48.7878H290.885Z" fill="#808080"/>
<rect x="292.699" y="45.1562" width="2.42003" height="2.01618" fill="#808080"/>
<rect x="292.699" y="48.7878" width="2.42003" height="2.01618" fill="#808080"/>
<rect x="255.19" y="13.2951" width="23.3926" height="4.84006" fill="#808080"/>
<rect x="255.19" y="22.9752" width="23.3926" height="4.84006" fill="#808080"/>
<rect x="255.19" y="32.6553" width="23.3926" height="4.84006" fill="#808080"/>
<rect x="255.19" y="42.3354" width="23.3926" height="4.84006" fill="#808080"/>
<rect x="26.7953" y="39.6982" width="1" height="22.9123" fill="#808080"/>
<path d="M32.7276 42.62C32.7643 50.6327 27.1288 57.1524 27.1288 57.1524C27.1288 57.1524 21.4321 50.6847 21.3954 42.672C21.3587 34.6593 26.9942 28.1396 26.9942 28.1396C26.9942 28.1396 32.6909 34.6073 32.7276 42.62Z" fill="#2BB673"/>
<path d="M183.654 43.547L182.246 41.2004L195.384 29.9416H229.163V33.2244L216.965 46.3617L202.888 49.1764L183.654 43.547Z" fill="#2BB673"/>
<path d="M234.976 36.547V29.2073H230.555V31.5233L229.163 29.9416L217.904 41.2004L216.026 43.0759L213.679 52.4623L217.904 62.7818H239.483V41.6685L234.976 36.547Z" fill="#CCCCCC"/>
<rect x="182.246" y="41.2004" width="35.658" height="21.5814" fill="#F2F2F2"/>
<rect x="205.471" y="48.0046" width="7.50485" height="6.56865" fill="#808080"/>
<rect x="195.852" y="47.769" width="6.56865" height="15.0128" fill="#CCCCCC"/>
<path d="M188.344 50.1156V47.769H185.529V50.1156H188.111H188.344Z" fill="#808080"/>
<path d="M188.111 51.9911H185.529V54.3377H188.344V51.9911H188.111Z" fill="#808080"/>
<rect x="190.222" y="47.769" width="2.8147" height="2.3466" fill="#808080"/>
<rect x="190.222" y="51.9911" width="2.8147" height="2.3466" fill="#808080"/>
<path d="M227.991 50.3512V48.0046H225.174V50.3512H227.756H227.991Z" fill="#808080"/>
<rect x="229.867" y="48.0046" width="2.8147" height="2.3466" fill="#808080"/>
<rect x="229.867" y="52.2267" width="2.8147" height="2.3466" fill="#808080"/>
<path d="M37.6931 43.547L36.2858 41.2004L49.4231 29.9416H83.2025V33.2244L71.0045 46.3617L56.931 49.1764L37.6931 43.547Z" fill="#2BB673"/>
<path d="M89.0186 36.547V29.2073H84.5946V31.5233L83.2025 29.9416L71.9437 41.2004L70.0652 43.0759L67.7217 52.4623L71.9437 62.7818H93.5251V41.6685L89.0186 36.547Z" fill="#CCCCCC"/>
<rect x="36.2858" y="41.2004" width="35.658" height="21.5814" fill="#F2F2F2"/>
<rect x="59.5101" y="48.0046" width="7.50485" height="6.56865" fill="#808080"/>
<rect x="49.8912" y="47.769" width="6.56865" height="15.0128" fill="#CCCCCC"/>
<path d="M42.3863 50.1156V47.769H39.5685V50.1156H42.1507H42.3863Z" fill="#808080"/>
<path d="M42.1507 51.9911H39.5685V54.3377H42.3863V51.9911H42.1507Z" fill="#808080"/>
<rect x="44.2617" y="47.769" width="2.8147" height="2.3466" fill="#808080"/>
<rect x="44.2617" y="51.9911" width="2.8147" height="2.3466" fill="#808080"/>
<path d="M82.0308 50.3512V48.0046H79.2161V50.3512H81.7952H82.0308Z" fill="#808080"/>
<rect x="83.9062" y="48.0046" width="2.8147" height="2.3466" fill="#808080"/>
<rect x="83.9062" y="52.2267" width="2.8147" height="2.3466" fill="#808080"/>
<path d="M128.544 43.5867L130.45 43.2135C130.45 43.2135 130.915 41.6348 131.472 41.8184C132.028 42.0019 131.098 43.5837 131.098 43.5837L128.449 44.7922L128.544 43.5867Z" fill="#A0616A"/>
<path d="M116.961 45.1746L116.125 46.2363C116.125 46.2363 114.917 46.1904 115.29 46.8481C115.663 47.5059 116.499 47.1266 116.544 46.9889C116.985 46.5159 117.451 46.0666 117.94 45.6427L116.961 45.1746Z" fill="#A0616A"/>
<path d="M120.39 43.9325L121.088 43.5593C121.088 43.5593 124.062 43.3237 125.178 44.0702C126.295 44.8167 120.485 44.9054 120.485 44.9054L120.39 43.9325Z" fill="#6C63FF"/>
<path d="M121.715 43.2594C121.715 43.2594 121.342 42.3783 121.856 42.2834C122.147 42.2265 122.446 42.2265 122.737 42.2834L122.18 42.7485L121.715 43.2594Z" fill="#808080"/>
<path opacity="0.1" d="M121.715 43.2594C121.715 43.2594 121.342 42.3783 121.856 42.2834C122.147 42.2265 122.446 42.2265 122.737 42.2834L122.18 42.7485L121.715 43.2594Z" fill="black"/>
<path d="M119.163 48.6043L117.817 48.5125L118.053 48.9317C118.053 48.9317 116.196 49.4885 116.798 51.0733C117.222 52.1341 117.734 53.1575 118.328 54.1327L118.94 55.2923C118.94 55.2923 120.194 55.4789 120.24 55.1056C120.286 54.7324 120.24 54.5488 120.005 54.3622C119.791 54.1704 119.658 53.9048 119.631 53.6187C119.631 53.4321 119.677 53.2455 119.54 53.1537C119.402 53.0619 119.353 52.9181 119.353 52.6428C119.353 52.3674 118.842 51.3425 118.842 51.3425C118.842 51.3425 120.47 51.2966 120.984 51.7158C121.498 52.1349 123.168 53.7136 123.168 53.7136C123.256 53.8139 123.329 53.9262 123.385 54.0471C123.477 54.2337 123.477 54.3255 123.664 54.4203C123.85 54.5152 123.71 54.8854 123.664 54.9313C123.618 54.9771 123.153 56.8373 123.153 56.8373C123.153 56.8373 122.642 57.7184 123.199 57.7551C123.756 57.7918 124.26 57.8469 124.312 57.7551C124.364 57.6258 124.427 57.5009 124.499 57.3819C124.573 57.1396 124.573 56.8807 124.499 56.6384C124.499 56.6384 125.845 54.919 125.417 53.8513C124.989 52.7835 124.117 50.3665 124.117 50.3665L122.77 49.8097L120.323 48.9286L119.163 48.6043Z" fill="#2F2E41"/>
<path d="M119.065 55.0597C119.065 55.0597 118.787 56.1214 118.692 56.1734C118.597 56.2254 117.579 57.0912 118.273 57.235C118.968 57.3788 119.482 57.3268 119.619 57.1891C119.757 57.0514 119.711 56.9107 119.944 56.8648C120.176 56.8189 120.595 56.6782 120.555 56.3539C120.516 56.0296 120.277 55.1454 120.136 55.0536C119.996 54.9618 119.065 55.0597 119.065 55.0597Z" fill="#2F2E41"/>
<path d="M123.107 57.4308C122.852 57.6638 122.777 58.0346 122.92 58.3486C123.153 58.9605 123.477 59.603 123.477 59.603C123.477 59.603 123.85 60.7625 124.453 60.579C124.675 60.5011 124.838 60.311 124.881 60.0803C124.968 59.7469 124.907 59.3922 124.713 59.1074L124.361 58.575L123.988 57.5991L123.107 57.4308Z" fill="#2F2E41"/>
<path d="M121.947 43.7734C121.947 43.7734 121.391 43.7275 121.296 43.8652C121.201 44.0029 120.785 45.863 121.296 46.0496C121.807 46.2363 123.34 46.5606 123.572 46.328C123.805 46.0955 123.896 44.0518 123.896 44.0518L121.947 43.7734Z" fill="#A0616A"/>
<path opacity="0.1" d="M121.947 43.7734C121.947 43.7734 121.391 43.7275 121.296 43.8652C121.201 44.0029 120.785 45.863 121.296 46.0496C121.807 46.2363 123.34 46.5606 123.572 46.328C123.805 46.0955 123.896 44.0518 123.896 44.0518L121.947 43.7734Z" fill="black"/>
<path d="M121.109 45.3062C121.109 45.3062 121.761 45.9578 122.171 45.863C122.581 45.7682 123.566 45.3521 123.658 45.1654C123.75 44.9788 124.912 44.9299 124.912 44.9299L123.658 48.4146L124.539 51.3425C124.539 51.3425 125.05 50.7306 123.658 50.6908C122.266 50.6511 120.406 49.9474 120.081 49.0173C120.081 49.0173 118.037 48.7389 117.94 48.693C117.842 48.6471 118.175 48.3687 118.175 48.3687L119.521 47.9954L120.497 46.7411L121.109 45.3062Z" fill="#F2F2F2"/>
<path d="M121.525 43.8652C121.525 43.8652 121.761 43.5409 121.525 43.5409C121.153 43.533 120.782 43.5484 120.412 43.5868C120.176 43.6327 119.298 43.4001 119.203 43.6785C119.108 43.957 119.111 45.6764 119.295 45.8202C119.478 45.964 119.573 45.9609 119.341 46.2393C119.108 46.5177 118.551 47.4478 118.689 47.769C118.827 48.0903 117.202 48.1882 117.435 48.5584C117.564 48.777 117.793 48.9169 118.047 48.9316C118.047 48.9316 118.138 48.1882 118.698 48.5584C119.258 48.9286 119.999 49.8587 120.604 49.2559C121.154 48.7538 121.472 48.048 121.485 47.304C121.534 46.7141 121.504 46.1203 121.394 45.5387C121.296 45.0737 121.525 43.8652 121.525 43.8652Z" fill="#FF6600"/>
<path d="M123.945 44.7463C123.945 44.7463 124.319 45.0706 123.945 45.86C123.572 46.6493 122.599 48.5095 123.388 49.7149C124.178 50.9203 124.502 51.2446 124.306 51.4802C124.194 51.6277 124.129 51.8059 124.12 51.9911L124.631 51.8045C124.688 51.4217 124.783 51.0456 124.915 50.6817C125.102 50.2166 124.542 48.8246 124.542 48.8246L124.729 47.0134C124.986 46.5966 125.265 46.1933 125.564 45.8049C125.656 45.759 125.377 43.7612 125.377 43.7612C125.151 43.6867 124.906 43.6867 124.68 43.7612C124.456 43.9111 123.945 44.7463 123.945 44.7463Z" fill="#FF6600"/>
<path d="M119.485 43.7244H119.206L117.3 44.7004C117.3 44.7004 117.159 44.0885 117.065 44.2354C116.97 44.3822 117.019 44.7463 116.786 44.8472C116.554 44.9482 116.413 45.0828 116.786 45.2664C117.159 45.45 117.205 45.3123 117.205 45.6396C117.205 45.967 117.484 46.0129 117.716 45.9181C117.949 45.8232 117.995 45.7773 118.227 45.8722C118.46 45.967 118.319 46.1077 118.646 45.9639C119.026 45.8728 119.417 45.8419 119.806 45.8722L119.485 43.7244Z" fill="#C76600"/>
<path d="M125.059 43.8652L125.383 43.7734C125.383 43.7734 126.359 43.8652 126.592 43.8652C126.824 43.8652 127.057 43.8193 127.204 43.8193C127.517 43.805 127.827 43.7421 128.121 43.6327C128.213 43.5409 128.632 43.3084 128.678 43.4461C128.724 43.5837 129.235 44.4679 128.77 44.8871C128.305 45.3062 128.213 45.1226 127.935 45.3062C127.656 45.4898 125.426 45.863 125.38 45.8171C125.334 45.7712 125.059 43.8652 125.059 43.8652Z" fill="#C76600"/>
<path d="M123.156 45.6305C123.926 45.6305 124.551 45.0059 124.551 44.2354C124.551 43.4649 123.926 42.8403 123.156 42.8403C122.385 42.8403 121.761 43.4649 121.761 44.2354C121.761 45.0059 122.385 45.6305 123.156 45.6305Z" fill="#A0616A"/>
<path d="M122.128 44.2966C122.143 44.3271 122.153 44.3604 122.156 44.3945C122.194 44.5594 122.341 44.6761 122.51 44.6759C122.498 44.7323 122.508 44.7915 122.539 44.8403C122.57 44.8891 122.619 44.9236 122.676 44.936H122.7C122.794 44.8158 122.865 44.6788 122.908 44.5321C122.919 44.4743 122.943 44.4198 122.979 44.3731C123.034 44.3257 123.104 44.2996 123.177 44.2996C123.549 44.252 123.923 44.2244 124.297 44.217C124.348 44.2204 124.399 44.2099 124.444 44.1864C124.548 44.1191 124.514 43.9508 124.444 43.8499C124.313 43.643 124.114 43.4883 123.881 43.4124C123.712 43.3669 123.539 43.3382 123.364 43.3267C123.132 43.2894 122.898 43.2648 122.663 43.2533C122.427 43.2427 122.193 43.3057 121.993 43.4338C121.853 43.5317 121.626 43.8071 121.736 43.9814C121.755 44.009 121.81 44.0243 121.834 44.0518C121.859 44.0793 121.868 44.1497 121.905 44.1834C121.941 44.217 122.079 44.217 122.128 44.2966Z" fill="#2F2E41"/>
<path d="M123.156 41.9133C123.156 41.9133 121.577 42.4701 121.715 43.2594C121.853 44.0488 122.272 44.9788 123.156 44.933C124.04 44.8871 124.502 43.9264 124.502 43.9264L124.267 42.6108C124.267 42.6108 123.385 41.9133 123.156 41.9133Z" fill="#808080"/>
<path d="M122.954 44.7004C122.954 44.7004 123.566 44.0273 123.887 44.4159C123.568 44.4813 123.255 44.5765 122.954 44.7004Z" fill="#2F2E41"/>
<path d="M124.126 61.9282C123.036 61.9146 122 61.4545 121.259 60.6555C118.812 58.2079 116.465 57.9693 116.444 57.9662V57.8775C116.468 57.8775 118.836 58.1284 121.317 60.5943C122.593 61.8609 123.909 61.9374 124.79 61.7752C125.371 61.6701 125.925 61.4473 126.417 61.1205L126.472 61.194C125.97 61.528 125.405 61.756 124.811 61.864C124.585 61.9057 124.356 61.9272 124.126 61.9282V61.9282Z" fill="#2F2E41"/>
<path d="M117.695 60.3583C118.247 60.3583 118.695 59.9106 118.695 59.3583C118.695 58.806 118.247 58.3583 117.695 58.3583C117.143 58.3583 116.695 58.806 116.695 59.3583C116.695 59.9106 117.143 60.3583 117.695 60.3583Z" fill="#2F2E41"/>
<path d="M121.645 62.9588C122.197 62.9588 122.645 62.5111 122.645 61.9588C122.645 61.4065 122.197 60.9588 121.645 60.9588C121.092 60.9588 120.645 61.4065 120.645 61.9588C120.645 62.5111 121.092 62.9588 121.645 62.9588Z" fill="#2F2E41"/>
</svg>
