<svg width="1024" height="64" viewBox="0 0 1024 64" fill="none" xmlns="http://www.w3.org/2000/svg">
<path opacity="0.3" d="M414.104 36.2074C414.104 48.0138 405.537 52.1349 394.964 52.1349C384.39 52.1349 375.824 48.0138 375.824 36.2074C375.824 24.401 394.976 9.37903 394.976 9.37903C394.976 9.37903 414.104 24.3948 414.104 36.2074Z" fill="#2BB673"/>
<path d="M394.266 50.3268L394.462 40.4478L402.621 28.2222L394.492 38.8967L394.581 34.4543L400.204 25.6094L394.603 33.2764V33.2764L394.762 25.2882L400.783 18.2484L394.786 24.0308L394.887 9.37903L394.263 28.776L394.315 27.9775L388.193 20.3013L394.217 29.5103L393.648 38.4347L393.63 38.1991L386.575 30.1221L393.608 39.0343L393.538 40.151L393.526 40.1694L393.532 40.2581L392.085 62.9012H394.015L394.248 51.2079L401.266 42.3141L394.266 50.3268Z" fill="#808080"/>
<path opacity="0.3" d="M360.08 36.2074C360.08 48.0138 351.513 52.1349 340.94 52.1349C330.366 52.1349 321.8 48.0138 321.8 36.2074C321.8 24.401 340.937 9.37903 340.937 9.37903C340.937 9.37903 360.08 24.3948 360.08 36.2074Z" fill="#2BB673"/>
<path d="M340.242 50.3268L340.438 40.4478L348.594 28.2222L340.469 38.8967L340.557 34.4543L346.181 25.6094L340.579 33.2764V33.2764L340.738 25.2882L346.759 18.2484L340.762 24.0308L340.863 9.37903L340.239 28.776L340.291 27.9775L334.169 20.3013L340.193 29.5103L339.621 38.4347L339.606 38.1991L332.551 30.1221L339.584 39.0343L339.514 40.151L339.499 40.1694L339.508 40.2581L338.058 62.9012H339.991L340.224 51.2079L347.242 42.3141L340.242 50.3268Z" fill="#808080"/>
<path opacity="0.3" d="M502.828 36.1646C502.828 47.971 494.261 52.0921 483.688 52.0921C473.114 52.0921 464.548 47.971 464.548 36.1646C464.548 24.3581 483.7 9.33618 483.7 9.33618C483.7 9.33618 502.828 24.3489 502.828 36.1646Z" fill="#2BB673"/>
<path d="M482.987 50.284L483.186 40.4019L491.343 28.1763L483.217 38.8508L483.302 34.4084L488.926 25.5666L483.327 33.2336V33.2336L483.486 25.2423L489.507 18.2025L483.51 23.9849L483.608 9.33313L482.987 28.7301L483.039 27.9316L476.917 20.2554L482.938 29.4674L482.369 38.3918L482.354 38.1532L475.296 30.0762L482.332 38.9915L482.259 40.1051L482.247 40.1235L482.253 40.2153L480.806 62.8553H482.739L482.972 51.162L489.99 42.2712L482.987 50.284Z" fill="#808080"/>
<path opacity="0.3" d="M544.969 36.1646C544.969 47.971 536.402 52.0921 525.829 52.0921C515.255 52.0921 506.689 47.971 506.689 36.1646C506.689 24.3581 525.829 9.33618 525.829 9.33618C525.829 9.33618 544.969 24.3489 544.969 36.1646Z" fill="#2BB673"/>
<path d="M525.131 50.284L525.327 40.4019L533.483 28.1763L525.358 38.8508L525.446 34.4084L531.07 25.5666L525.468 33.2336V33.2336L525.627 25.2423L531.648 18.2025L525.651 23.9849L525.752 9.33313L525.128 28.7301L525.18 27.9316L519.058 20.2554L525.082 29.4674L524.51 38.3918L524.495 38.1532L517.44 30.0762L524.473 38.9915L524.403 40.1051L524.388 40.1235L524.397 40.2153L522.947 62.8553H524.88L525.113 51.162L532.131 42.2712L525.131 50.284Z" fill="#808080"/>
<rect x="533.428" y="45.5204" width="1" height="17.5184" fill="#808080"/>
<path d="M537.963 47.7538C537.99 53.8727 533.679 58.8657 533.679 58.8657C533.679 58.8657 529.323 53.9216 529.295 47.7935C529.268 41.6654 533.578 36.6816 533.578 36.6816C533.578 36.6816 537.935 41.6195 537.963 47.7538Z" fill="#2BB673"/>
<rect x="526.844" y="45.5204" width="1" height="17.5184" fill="#808080"/>
<path d="M531.382 47.7538C531.409 53.8727 527.098 58.8657 527.098 58.8657C527.098 58.8657 522.742 53.9216 522.714 47.7935C522.687 41.6654 526.997 36.6816 526.997 36.6816C526.997 36.6816 531.351 41.6195 531.382 47.7538Z" fill="#33CCB4"/>
<rect x="519.713" y="45.5204" width="1" height="17.5184" fill="#808080"/>
<path d="M524.25 47.7538C524.278 53.8727 519.967 58.8657 519.967 58.8657C519.967 58.8657 515.61 53.9216 515.583 47.7935C515.555 41.6654 519.866 36.6816 519.866 36.6816C519.866 36.6816 524.223 41.6195 524.25 47.7538Z" fill="#2BB673"/>
<rect x="512.786" y="45.5204" width="1" height="17.5184" fill="#808080"/>
<path d="M517.323 47.7538C517.351 53.8727 513.04 58.8657 513.04 58.8657C513.04 58.8657 508.684 53.9216 508.656 47.7935C508.628 41.6654 512.939 36.6816 512.939 36.6816C512.939 36.6816 517.296 41.6195 517.323 47.7538Z" fill="#2BB673"/>
<path opacity="0.3" d="M266.913 36.3879C266.913 48.1943 258.347 52.3154 247.773 52.3154C237.2 52.3154 228.633 48.1943 228.633 36.3879C228.633 24.5814 247.773 9.55951 247.773 9.55951C247.773 9.55951 266.913 24.5723 266.913 36.3879Z" fill="#2BB673"/>
<path d="M247.076 50.5073L247.271 40.6252L255.431 28.3996L247.302 39.0741L247.391 34.6318L253.014 25.7899L247.412 33.4569V33.4569L247.571 25.4656L253.592 18.4258L247.596 24.2112L247.697 9.55951L247.073 28.9534L247.125 28.1549L241.003 20.4818L247.027 29.6907L246.458 38.6152L246.439 38.3765L239.384 30.2996L246.418 39.2148L246.347 40.3315L246.332 40.3468L246.341 40.4386L244.894 63.0786H246.825L247.057 51.3853L254.076 42.4946L247.076 50.5073Z" fill="#808080"/>
<path opacity="0.3" d="M196.76 36.3879C196.76 48.1943 188.193 52.3154 177.62 52.3154C167.046 52.3154 158.48 48.1943 158.48 36.3879C158.48 24.5814 177.62 9.55951 177.62 9.55951C177.62 9.55951 196.76 24.5723 196.76 36.3879Z" fill="#2BB673"/>
<path d="M176.922 50.5073L177.118 40.6252L185.278 28.3996L177.149 39.0741L177.237 34.6318L182.861 25.7899L177.259 33.4569V33.4569L177.418 25.4656L183.439 18.4258L177.442 24.2112L177.543 9.55951L176.919 28.9534L176.971 28.1549L170.849 20.4818L176.873 29.6907L176.304 38.6152L176.286 38.3765L169.231 30.2996L176.264 39.2148L176.194 40.3315L176.182 40.3468L176.188 40.4386L174.738 63.0786H176.671L176.904 51.3853L183.922 42.4946L176.922 50.5073Z" fill="#808080"/>
<path opacity="0.3" d="M93.6194 36.3879C93.6194 48.1943 85.0529 52.3154 74.4794 52.3154C63.9059 52.3154 55.3394 48.1943 55.3394 36.3879C55.3394 24.5814 74.4794 9.55951 74.4794 9.55951C74.4794 9.55951 93.6194 24.5723 93.6194 36.3879Z" fill="#2BB673"/>
<path d="M73.7757 50.5073L73.9715 40.6252L82.128 28.3996L74.0021 39.0741L74.0908 34.6318L79.7141 25.7899L74.1123 33.4569V33.4569L74.2714 25.4656L80.2924 18.4258L74.2958 24.2112L74.3968 9.55951L73.7727 28.9534L73.8247 28.1549L67.7027 20.4818L73.7268 29.6907L73.1547 38.6152L73.1394 38.3765L66.0843 30.2996L73.1179 39.2148L73.0476 40.3315L73.0323 40.3468L73.0415 40.4386L71.5913 63.0786H73.5248L73.7574 51.3853L80.7758 42.4946L73.7757 50.5073Z" fill="#808080"/>
<path opacity="0.3" d="M126.193 36.3879C126.193 48.1943 117.627 52.3154 107.053 52.3154C96.48 52.3154 87.9135 48.1943 87.9135 36.3879C87.9135 24.5814 107.053 9.55951 107.053 9.55951C107.053 9.55951 126.193 24.5723 126.193 36.3879Z" fill="#2BB673"/>
<path d="M106.356 50.5073L106.552 40.6252L114.711 28.3996L106.585 39.0741L106.671 34.6318L112.294 25.7899L106.695 33.4569V33.4569L106.855 25.4656L112.873 18.4258L106.879 24.2112L106.977 9.55951L106.356 28.9534L106.405 28.1549L100.286 20.4818L106.307 29.6907L105.738 38.6152L105.723 38.3765L98.6644 30.2996L105.701 39.2148L105.628 40.3315L105.615 40.3468L105.622 40.4386L104.174 63.0786H106.108L106.338 51.3853L113.359 42.4946L106.356 50.5073Z" fill="#808080"/>
<path d="M263.337 12.2855L261.32 10.6731L272.613 0.589172H301.249V9.4616L282.697 21.9656L263.337 12.2855Z" fill="#2BB673"/>
<path d="M306.472 6.24611V0.791096H302.669V2.12808L301.249 0.589172L291.973 10.6731L288.345 13.0932L282.715 54.2153L291.205 62.7023H310.929V11.077L306.472 6.24611Z" fill="#CCCCCC"/>
<rect x="261.32" y="10.6732" width="30.6527" height="52.0291" fill="#F2F2F2"/>
<rect x="273.219" y="49.9963" width="5.64776" height="12.7059" fill="#CCCCCC"/>
<path d="M267.17 53.6279V51.6118H264.75V53.6279H266.968H267.17Z" fill="#808080"/>
<path d="M266.968 55.2402H264.75V57.2564H267.17V55.2402H266.968Z" fill="#808080"/>
<rect x="268.782" y="51.6118" width="2.42003" height="2.01618" fill="#808080"/>
<rect x="268.782" y="55.2402" width="2.42003" height="2.01618" fill="#808080"/>
<path d="M283.706 53.6279V51.6118H281.286V53.6279H283.505H283.706Z" fill="#808080"/>
<path d="M283.505 55.2402H281.286V57.2564H283.706V55.2402H283.505Z" fill="#808080"/>
<rect x="285.319" y="51.6118" width="2.42003" height="2.01618" fill="#808080"/>
<rect x="285.319" y="55.2402" width="2.42003" height="2.01618" fill="#808080"/>
<path d="M300.647 13.2951V11.2789H298.227V13.2951H300.445H300.647Z" fill="#808080"/>
<path d="M300.445 14.9074H298.227V16.9236H300.647V14.9074H300.445Z" fill="#808080"/>
<rect x="302.259" y="11.2789" width="2.42003" height="2.01618" fill="#808080"/>
<rect x="302.259" y="14.9074" width="2.42003" height="2.01618" fill="#808080"/>
<path d="M300.647 24.5875V22.5714H298.227V24.5875H300.445H300.647Z" fill="#808080"/>
<path d="M300.445 26.1999H298.227V28.2191H300.647V26.1999H300.445Z" fill="#808080"/>
<rect x="302.259" y="22.5714" width="2.42003" height="2.01618" fill="#808080"/>
<rect x="302.259" y="26.1999" width="2.42003" height="2.01618" fill="#808080"/>
<path d="M300.647 35.88V33.8638H298.227V35.88H300.445H300.647Z" fill="#808080"/>
<path d="M300.445 37.4954H298.227V39.5116H300.647V37.4954H300.445Z" fill="#808080"/>
<rect x="302.259" y="33.8638" width="2.42003" height="2.01618" fill="#808080"/>
<rect x="302.259" y="37.4954" width="2.42003" height="2.01618" fill="#808080"/>
<path d="M300.647 47.1755V45.1594H298.227V47.1755H300.445H300.647Z" fill="#808080"/>
<path d="M300.445 48.7878H298.227V50.804H300.647V48.7878H300.445Z" fill="#808080"/>
<rect x="302.259" y="45.1563" width="2.42003" height="2.01618" fill="#808080"/>
<rect x="302.259" y="48.7878" width="2.42003" height="2.01618" fill="#808080"/>
<rect x="264.75" y="13.2951" width="23.3926" height="4.84006" fill="#808080"/>
<rect x="264.75" y="22.9752" width="23.3926" height="4.84006" fill="#808080"/>
<rect x="264.75" y="32.6553" width="23.3926" height="4.84006" fill="#808080"/>
<rect x="264.75" y="42.3354" width="23.3926" height="4.84006" fill="#808080"/>
<path d="M191.403 12.2855L189.386 10.6731L200.679 0.589172H229.318V9.4616L210.763 21.9656L191.403 12.2855Z" fill="#2BB673"/>
<path d="M234.538 6.24611V0.791096H230.735V2.12808L229.318 0.589172L220.042 10.6731L216.411 13.0932L210.781 54.2153L219.271 62.7023H238.999V11.077L234.538 6.24611Z" fill="#CCCCCC"/>
<rect x="189.386" y="10.6732" width="30.6527" height="52.0291" fill="#F2F2F2"/>
<rect x="201.285" y="49.9963" width="5.64776" height="12.7059" fill="#CCCCCC"/>
<path d="M195.236 53.6279V51.6118H192.816V53.6279H195.034H195.236Z" fill="#808080"/>
<path d="M195.034 55.2402H192.816V57.2564H195.236V55.2402H195.034Z" fill="#808080"/>
<rect x="196.848" y="51.6118" width="2.42003" height="2.01618" fill="#808080"/>
<rect x="196.848" y="55.2402" width="2.42003" height="2.01618" fill="#808080"/>
<path d="M211.773 53.6279V51.6118H209.352V53.6279H211.571H211.773Z" fill="#808080"/>
<path d="M211.571 55.2402H209.352V57.2564H211.773V55.2402H211.571Z" fill="#808080"/>
<rect x="213.385" y="51.6118" width="2.42003" height="2.01618" fill="#808080"/>
<rect x="213.385" y="55.2402" width="2.42003" height="2.01618" fill="#808080"/>
<path d="M228.713 13.2951V11.2789H226.293V13.2951H228.511H228.713Z" fill="#808080"/>
<path d="M228.511 14.9074H226.293V16.9236H228.713V14.9074H228.511Z" fill="#808080"/>
<rect x="230.325" y="11.2789" width="2.42003" height="2.01618" fill="#808080"/>
<rect x="230.325" y="14.9074" width="2.42003" height="2.01618" fill="#808080"/>
<path d="M228.713 24.5875V22.5714H226.293V24.5875H228.511H228.713Z" fill="#808080"/>
<path d="M228.511 26.1999H226.293V28.2191H228.713V26.1999H228.511Z" fill="#808080"/>
<rect x="230.325" y="22.5714" width="2.42003" height="2.01618" fill="#808080"/>
<rect x="230.325" y="26.1999" width="2.42003" height="2.01618" fill="#808080"/>
<path d="M228.713 35.88V33.8638H226.293V35.88H228.511H228.713Z" fill="#808080"/>
<path d="M228.511 37.4954H226.293V39.5116H228.713V37.4954H228.511Z" fill="#808080"/>
<rect x="230.325" y="33.8638" width="2.42003" height="2.01618" fill="#808080"/>
<rect x="230.325" y="37.4954" width="2.42003" height="2.01618" fill="#808080"/>
<path d="M228.713 47.1755V45.1594H226.293V47.1755H228.511H228.713Z" fill="#808080"/>
<path d="M228.511 48.7878H226.293V50.804H228.713V48.7878H228.511Z" fill="#808080"/>
<rect x="230.325" y="45.1563" width="2.42003" height="2.01618" fill="#808080"/>
<rect x="230.325" y="48.7878" width="2.42003" height="2.01618" fill="#808080"/>
<rect x="192.816" y="13.2951" width="23.3926" height="4.84006" fill="#808080"/>
<rect x="192.816" y="22.9752" width="23.3926" height="4.84006" fill="#808080"/>
<rect x="192.816" y="32.6553" width="23.3926" height="4.84006" fill="#808080"/>
<rect x="192.816" y="42.3354" width="23.3926" height="4.84006" fill="#808080"/>
<path d="M13.532 12.2855L11.5158 10.6731L22.8113 0.589172H51.4478V9.4616L32.8953 21.9656L13.532 12.2855Z" fill="#2BB673"/>
<path d="M56.6672 6.24611V0.791096H52.8674V2.12808L51.4478 0.589172L42.1715 10.6731L38.54 13.0932L32.9106 54.2153L41.4006 62.7023H61.1279V11.077L56.6672 6.24611Z" fill="#CCCCCC"/>
<rect x="11.5158" y="10.6732" width="30.6527" height="52.0291" fill="#F2F2F2"/>
<rect x="23.414" y="49.9963" width="5.64776" height="12.7059" fill="#CCCCCC"/>
<path d="M17.3655 53.6279V51.6118H14.9454V53.6279H17.1635H17.3655Z" fill="#808080"/>
<path d="M17.1635 55.2402H14.9454V57.2564H17.3655V55.2402H17.1635Z" fill="#808080"/>
<rect x="18.9778" y="51.6118" width="2.42003" height="2.01618" fill="#808080"/>
<rect x="18.9778" y="55.2402" width="2.42003" height="2.01618" fill="#808080"/>
<path d="M33.9018 53.6279V51.6118H31.4818V53.6279H33.6999H33.9018Z" fill="#808080"/>
<path d="M33.6999 55.2402H31.4818V57.2564H33.9018V55.2402H33.6999Z" fill="#808080"/>
<rect x="35.5142" y="51.6118" width="2.42003" height="2.01618" fill="#808080"/>
<rect x="35.5142" y="55.2402" width="2.42003" height="2.01618" fill="#808080"/>
<path d="M50.842 13.2951V11.2789H48.422V13.2951H50.6401H50.842Z" fill="#808080"/>
<path d="M50.6401 14.9074H48.422V16.9236H50.842V14.9074H50.6401Z" fill="#808080"/>
<rect x="52.4544" y="11.2789" width="2.42003" height="2.01618" fill="#808080"/>
<rect x="52.4544" y="14.9074" width="2.42003" height="2.01618" fill="#808080"/>
<path d="M50.842 24.5875V22.5714H48.422V24.5875H50.6401H50.842Z" fill="#808080"/>
<path d="M50.6401 26.1999H48.422V28.2191H50.842V26.1999H50.6401Z" fill="#808080"/>
<rect x="52.4544" y="22.5714" width="2.42003" height="2.01618" fill="#808080"/>
<rect x="52.4544" y="26.1999" width="2.42003" height="2.01618" fill="#808080"/>
<path d="M50.842 35.88V33.8638H48.422V35.88H50.6401H50.842Z" fill="#808080"/>
<path d="M50.6401 37.4954H48.422V39.5116H50.842V37.4954H50.6401Z" fill="#808080"/>
<rect x="52.4544" y="33.8638" width="2.42003" height="2.01618" fill="#808080"/>
<rect x="52.4544" y="37.4954" width="2.42003" height="2.01618" fill="#808080"/>
<path d="M50.842 47.1755V45.1594H48.422V47.1755H50.6401H50.842Z" fill="#808080"/>
<path d="M50.6401 48.7878H48.422V50.804H50.842V48.7878H50.6401Z" fill="#808080"/>
<rect x="52.4544" y="45.1563" width="2.42003" height="2.01618" fill="#808080"/>
<rect x="52.4544" y="48.7878" width="2.42003" height="2.01618" fill="#808080"/>
<rect x="14.9454" y="13.2951" width="23.3926" height="4.84006" fill="#808080"/>
<rect x="14.9454" y="22.9752" width="23.3926" height="4.84006" fill="#808080"/>
<rect x="14.9454" y="32.6553" width="23.3926" height="4.84006" fill="#808080"/>
<rect x="14.9454" y="42.3354" width="23.3926" height="4.84006" fill="#808080"/>
<rect x="253.595" y="39.6982" width="1" height="22.9123" fill="#808080"/>
<path d="M261.06 42.62C261.097 50.6327 255.462 57.1524 255.462 57.1524C255.462 57.1524 249.762 50.6817 249.725 42.672C249.688 34.6623 255.324 28.1396 255.324 28.1396C255.324 28.1396 261.024 34.6073 261.06 42.62Z" fill="#2BB673"/>
<path opacity="0.3" d="M869.433 36.3879C869.433 48.1943 860.867 52.3154 850.293 52.3154C839.72 52.3154 831.153 48.1943 831.153 36.3879C831.153 24.5814 850.293 9.55951 850.293 9.55951C850.293 9.55951 869.433 24.5723 869.433 36.3879Z" fill="#2BB673"/>
<path d="M849.596 50.5073L849.792 40.6252L857.951 28.3996L849.822 39.0741L849.911 34.6318L855.534 25.7899L849.932 33.4569V33.4569L850.091 25.4656L856.112 18.4258L850.116 24.2112L850.217 9.55951L849.593 28.9534L849.645 28.1549L843.523 20.4818L849.547 29.6907L848.975 38.6152L848.959 38.3765L841.904 30.2996L848.938 39.2148L848.868 40.3315L848.852 40.3468L848.861 40.4386L847.411 63.0786H849.345L849.577 51.3853L856.596 42.4946L849.596 50.5073Z" fill="#808080"/>
<path opacity="0.3" d="M780.06 36.3879C780.06 48.1943 771.494 52.3154 760.92 52.3154C750.347 52.3154 741.78 48.1943 741.78 36.3879C741.78 24.5814 760.92 9.55951 760.92 9.55951C760.92 9.55951 780.06 24.5723 780.06 36.3879Z" fill="#2BB673"/>
<path d="M760.223 50.5073L760.419 40.6252L768.578 28.3996L760.449 39.0741L760.538 34.6318L766.161 25.7899L760.559 33.4569V33.4569L760.718 25.4656L766.739 18.4258L760.743 24.2112L760.844 9.55951L760.22 28.9534L760.272 28.1549L754.15 20.4818L760.174 29.6907L759.602 38.6152L759.586 38.3765L752.531 30.2996L759.565 39.2148L759.495 40.3315L759.479 40.3468L759.489 40.4386L758.038 63.0786H759.972L760.204 51.3853L767.223 42.4946L760.223 50.5073Z" fill="#808080"/>
<path d="M5.84968 58.2416C7.59663 61.4816 11.2986 62.8767 11.2986 62.8767C11.2986 62.8767 12.1736 59.0187 10.4266 55.7787C8.67968 52.5388 4.97468 51.1498 4.97468 51.1498C4.97468 51.1498 4.10273 55.0047 5.84968 58.2416Z" fill="#2BB673"/>
<path d="M7.03675 57.1769C10.1849 59.0738 11.3934 62.8399 11.3934 62.8399C11.3934 62.8399 7.49873 63.5314 4.35667 61.6162C1.2146 59.7009 0 55.9715 0 55.9715C0 55.9715 3.89469 55.2709 7.03675 57.1769Z" fill="#2BB673"/>
<rect x="168.405" y="45.7437" width="1" height="17.5184" fill="#808080"/>
<rect x="81.8863" y="45.3" width="1" height="17.5184" fill="#808080"/>
<path d="M82.177 36.4644C82.177 36.4644 86.4878 41.4482 86.4602 47.5763C86.4327 53.7044 82.073 58.6362 82.073 58.6362C82.073 58.6362 77.7622 53.6493 77.7897 47.5243C77.8173 41.3993 82.177 36.4644 82.177 36.4644Z" fill="#33CCB4"/>
<rect x="87.6504" y="45.3" width="1" height="17.5184" fill="#808080"/>
<path d="M87.941 36.4644C87.941 36.4644 92.2518 41.4482 92.2242 47.5763C92.1967 53.7044 87.84 58.6362 87.84 58.6362C87.84 58.6362 83.5293 53.6493 83.5568 47.5243C83.5843 41.3993 87.941 36.4644 87.941 36.4644Z" fill="#2BB673"/>
<path d="M855.828 58.6638C857.428 61.6315 860.821 62.9103 860.821 62.9103C860.821 62.9103 861.622 59.3767 860.022 56.409C858.422 53.4413 855.029 52.1686 855.029 52.1686C855.029 52.1686 854.228 55.6992 855.828 58.6638Z" fill="#2BB673"/>
<path d="M856.926 57.6878C859.808 59.4256 860.903 62.8889 860.903 62.8889C860.903 62.8889 857.336 63.5222 854.448 61.7813C851.56 60.0405 850.471 56.6017 850.471 56.6017C850.471 56.6017 854.038 55.95 856.926 57.6878Z" fill="#2BB673"/>
<rect x="938.403" y="45.3" width="1" height="17.5184" fill="#808080"/>
<path d="M938.675 36.4644C938.675 36.4644 942.986 41.4482 942.958 47.5763C942.931 53.7044 938.574 58.6362 938.574 58.6362C938.574 58.6362 934.263 53.6493 934.291 47.5243C934.318 41.3993 938.675 36.4644 938.675 36.4644Z" fill="#2BB673"/>
<path d="M184.228 58.3609C185.828 61.3286 189.221 62.6074 189.221 62.6074C189.221 62.6074 190.023 59.0737 188.423 56.1061C186.823 53.1384 183.43 51.8657 183.43 51.8657C183.43 51.8657 182.631 55.3963 184.228 58.3609Z" fill="#2BB673"/>
<path d="M185.327 57.385C188.209 59.1227 189.304 62.586 189.304 62.586C189.304 62.586 185.737 63.2193 182.848 61.4785C179.96 59.7377 178.871 56.2988 178.871 56.2988C178.871 56.2988 182.438 55.6502 185.327 57.385Z" fill="#2BB673"/>
<path opacity="0.3" d="M637.34 36.3879C637.34 48.1943 628.773 52.3154 618.2 52.3154C607.626 52.3154 599.042 48.1943 599.042 36.3879C599.042 24.5814 618.181 9.55951 618.181 9.55951C618.181 9.55951 637.34 24.5723 637.34 36.3879Z" fill="#2BB673"/>
<path d="M617.499 50.5073L617.698 40.6252L625.855 28.3996L617.729 39.0741L617.817 34.6318L623.438 25.7899L617.839 33.4569V33.4569L617.998 25.4656L624.019 18.4258L618.022 24.2112L618.123 9.55951L617.499 28.9534L617.551 28.1549L611.429 20.4818L617.453 29.6907L616.881 38.6152L616.866 38.3765L609.808 30.2996L616.844 39.2148L616.771 40.3315L616.759 40.3468L616.765 40.4386L615.318 63.0786H617.251L617.484 51.3853L624.502 42.4946L617.499 50.5073Z" fill="#808080"/>
<path d="M319.355 40.6681H318.193V41.7267H319.462V40.6681H319.355Z" fill="#808080"/>
<path d="M317.048 40.5059C317.048 40.5059 317.128 40.5977 316.99 40.7813C316.853 40.9649 316.963 41.3534 317.229 41.3656C317.495 41.3779 317.627 41.488 317.559 41.6318C317.492 41.7756 317.419 42.1274 317.706 42.0724C317.994 42.0173 318.086 42.1336 318.037 42.2223C317.988 42.311 318.165 42.0479 318.165 42.0479C318.165 42.0479 318.324 42.2865 318.523 42.1183C318.722 41.95 318.798 40.4295 318.398 40.4019C317.946 40.4073 317.495 40.442 317.048 40.5059V40.5059Z" fill="#2F2E41"/>
<path d="M319.092 47.7446L319.184 48.3871H319.597L319.459 47.6528L319.092 47.7446Z" fill="#FFB8B8"/>
<path d="M319.643 47.9985C319.643 47.9985 320.194 48.5033 320.056 48.5492C319.918 48.5951 319.413 49.1611 319.322 49.1917C319.23 49.2223 318.358 49.4977 318.496 49.1917C318.598 48.9834 318.757 48.8083 318.954 48.6869L319.046 48.1362L319.643 47.9985Z" fill="#F2F2F2"/>
<path opacity="0.1" d="M319.643 47.9985C319.643 47.9985 320.194 48.5033 320.056 48.5492C319.918 48.5951 319.413 49.1611 319.322 49.1917C319.23 49.2223 318.358 49.4977 318.496 49.1917C318.598 48.9834 318.757 48.8083 318.954 48.6869L319.046 48.1362L319.643 47.9985Z" fill="black"/>
<path d="M319.643 47.2643L319.735 47.9068H320.148L320.01 47.1694L319.643 47.2643Z" fill="#FFB8B8"/>
<path d="M317.914 45.5571L318.526 43.5684C318.526 43.5684 317.516 42.6506 318.22 42.3752C318.924 42.0999 319.095 43.4766 319.095 43.4766L318.866 45.863H317.948L317.914 45.5571Z" fill="#FFB8B8"/>
<path d="M319.322 44.0977C319.322 44.0977 318.134 45.6274 318.312 45.8447C318.489 46.0619 318.814 47.4478 318.814 47.4478C318.814 47.4478 318.768 47.9985 318.951 47.9985C319.135 47.9985 319.594 47.9067 319.594 47.7691C319.594 47.6314 319.187 45.8875 319.187 45.8875L320.38 44.3272L319.322 44.0977Z" fill="#338EB4"/>
<path d="M319.407 44.1864L320.6 43.5439C320.6 43.5439 321.426 43.957 321.212 44.3241C320.818 44.7995 320.389 45.2443 319.927 45.655C319.927 45.655 320.233 47.2153 320.203 47.2612C319.991 47.3757 319.755 47.4386 319.514 47.4448C319.377 47.3989 318.639 45.6091 318.826 45.5173C319.013 45.4255 319.606 44.4618 319.606 44.4618L319.407 44.1864Z" fill="#33CCB4"/>
<path d="M316.152 61.7508C316.447 61.9384 316.753 62.107 317.07 62.2556C317.162 62.2556 318.401 62.5615 317.85 62.8063C317.299 63.051 315.188 62.7145 315.234 62.5768C315.28 62.4392 315.234 61.6131 315.326 61.6131C315.418 61.6131 316.152 61.7508 316.152 61.7508Z" fill="#2F2E41"/>
<path d="M317.07 61.6773C317.365 61.865 317.671 62.0336 317.988 62.1822C318.079 62.1822 319.319 62.4881 318.768 62.7329C318.217 62.9776 316.106 62.6411 316.152 62.5034C316.198 62.3657 316.152 61.5397 316.244 61.5397C316.336 61.5397 317.07 61.6773 317.07 61.6773Z" fill="#2F2E41"/>
<path d="M316.118 52.1043C316.217 52.6993 316.367 53.2848 316.565 53.8543C316.794 54.3591 316.519 56.7455 316.381 57.1157C316.244 57.4859 314.913 61.8426 315.326 61.8885C315.739 61.9131 316.152 61.9131 316.565 61.8885L317.896 57.7092L317.666 52.1074L316.118 52.1043Z" fill="#575A88"/>
<path opacity="0.1" d="M316.118 52.1043C316.217 52.6993 316.367 53.2848 316.565 53.8543C316.794 54.3591 316.519 56.7455 316.381 57.1157C316.244 57.4859 314.913 61.8426 315.326 61.8885C315.739 61.9131 316.152 61.9131 316.565 61.8885L317.896 57.7092L317.666 52.1074L316.118 52.1043Z" fill="black"/>
<path d="M316.473 51.9911C316.473 51.9911 316.657 53.2302 317.085 53.5025C317.513 53.7748 317.36 54.0532 317.36 54.0532L317.177 56.5008C317.177 56.5008 315.387 60.9095 315.953 61.4632C316.283 61.8131 316.794 61.9227 317.238 61.7386C317.468 61.6957 317.881 60.7289 317.651 60.4536C317.422 60.1782 318.11 58.5261 318.294 58.2508C318.477 57.9754 318.294 57.6083 318.523 57.5165C318.911 57.2686 319.178 56.869 319.257 56.4151C319.257 56.0021 319.9 51.5934 319.487 51.3242C319.074 51.0549 316.427 51.8932 316.427 51.8932L316.473 51.9911Z" fill="#575A88"/>
<path d="M315.601 45.5632C316.159 45.5632 316.611 45.1112 316.611 44.5536C316.611 43.996 316.159 43.5439 315.601 43.5439C315.044 43.5439 314.592 43.996 314.592 44.5536C314.592 45.1112 315.044 45.5632 315.601 45.5632Z" fill="#FFB8B8"/>
<path d="M317.899 41.8822C318.451 41.8822 318.899 41.4345 318.899 40.8822C318.899 40.3299 318.451 39.8822 317.899 39.8822C317.347 39.8822 316.899 40.3299 316.899 40.8822C316.899 41.4345 317.347 41.8822 317.899 41.8822Z" fill="#FFB8B8"/>
<path d="M316.29 44.5627C316.29 44.5627 316.84 45.5724 317.116 45.5724C317.391 45.5724 316.014 46.6279 316.014 46.6279C315.862 46.1569 315.678 45.6969 315.464 45.2511C315.372 45.1961 316.29 44.5627 316.29 44.5627Z" fill="#FFB8B8"/>
<path d="M318.128 41.387C318.276 41.6585 318.408 41.9384 318.523 42.2253C318.544 42.3507 319.19 41.387 319.19 41.387L318.456 40.8822L318.128 41.387Z" fill="#FFB8B8"/>
<path d="M318.266 41.9377L319.046 41.1117L319.964 41.5247C319.964 41.5247 320.821 43.4063 320.882 43.544C320.943 43.6816 319.511 44.3241 319.374 44.3241C319.236 44.3241 318.272 42.9015 318.272 42.9015C318.272 42.9015 318.037 42.2131 318.266 41.9377Z" fill="#FF6600"/>
<path d="M317.899 43.0391V43.8652H318.45L318.266 43.0391H317.899Z" fill="#FFB8B8"/>
<path d="M318.211 43.6602C318.068 43.6579 317.939 43.7445 317.887 43.8774C317.85 43.9753 317.862 44.0763 318.034 44.116C318.401 44.2078 318.447 44.116 318.447 44.116C318.447 44.116 319.083 44.0243 318.948 43.8407C318.814 43.6571 318.447 43.6571 318.447 43.6571L318.211 43.6602Z" fill="#FFB8B8"/>
<path d="M320.193 47.6222C320.193 47.6222 320.744 48.127 320.607 48.1729C320.469 48.2188 319.964 48.7848 319.872 48.8154C319.78 48.846 318.909 49.1213 319.046 48.8154C319.148 48.607 319.307 48.4319 319.505 48.3106L319.597 47.7599L320.193 47.6222Z" fill="#F2F2F2"/>
<path d="M315.243 43.7795C315.308 43.7428 315.381 43.7 315.384 43.6205C315.381 43.5649 315.345 43.5166 315.292 43.4981C315.241 43.4804 315.187 43.4732 315.133 43.4767C315.113 43.4736 315.092 43.4736 315.072 43.4767C315.02 43.492 314.992 43.547 314.95 43.5807C314.884 43.6269 314.809 43.6573 314.729 43.6694C314.6 43.7031 314.477 43.7546 314.362 43.8224C314.339 43.8341 314.32 43.8509 314.304 43.8713C314.286 43.9083 314.277 43.9494 314.28 43.9906C314.251 44.1447 314.192 44.2914 314.105 44.422C314.019 44.5557 314.007 44.7237 314.072 44.8687C314.104 44.9099 314.135 44.9528 314.163 44.9972C314.221 45.1196 314.163 45.2664 314.191 45.3949C314.21 45.4451 314.24 45.4901 314.28 45.5265C314.361 45.6076 314.46 45.6675 314.57 45.7009C314.674 45.7315 314.803 45.7529 314.846 45.8539C314.855 45.8998 314.868 45.9448 314.885 45.9885C314.922 46.0348 314.976 46.0636 315.035 46.068C315.1 46.078 315.166 46.078 315.231 46.068C315.297 46.063 315.358 46.0309 315.399 45.9793C315.418 45.943 315.44 45.9091 315.467 45.8783C315.534 45.8233 315.635 45.8783 315.721 45.8508C315.791 45.8376 315.847 45.7851 315.864 45.7162C315.867 45.6797 315.877 45.6443 315.895 45.6122C315.947 45.5449 316.088 45.5907 316.121 45.5143C316.155 45.4378 316.097 45.4102 316.051 45.3766C315.972 45.3308 315.897 45.2797 315.825 45.2236C315.754 45.1659 315.718 45.0756 315.73 44.985C315.76 44.8534 315.935 44.78 315.941 44.6423C315.936 44.563 315.892 44.4911 315.825 44.4496C315.757 44.409 315.693 44.364 315.632 44.315C315.589 44.2752 315.558 44.2262 315.516 44.1895C315.424 44.1335 315.317 44.1058 315.21 44.11C315.155 44.11 314.934 44.0794 314.943 43.9937C314.953 43.908 315.185 43.8101 315.243 43.7795Z" fill="#2F2E41"/>
<path d="M318.266 41.8918C318.266 41.8918 317.761 42.0754 317.761 42.3049C317.761 42.5343 317.532 43.2686 317.761 43.2686C317.997 43.2398 318.228 43.1812 318.45 43.0942L318.266 41.8918Z" fill="#FF6600"/>
<path d="M318.128 45.1991C318.128 45.1991 319.459 44.7402 319.505 44.7402C319.551 44.7402 320.194 44.3731 320.148 44.2354L319.964 43.0881C319.964 43.0881 319.23 41.5767 319.735 41.5767C320.239 41.5767 320.515 42.7699 320.515 42.7699C320.515 42.7699 321.616 44.8381 321.02 45.294C320.423 45.7498 317.942 46.5728 317.804 46.4382C317.666 46.3036 318.128 45.1991 318.128 45.1991Z" fill="#FFB8B8"/>
<path d="M319.407 42.2131L319.713 42.519L319.315 42.9076C319.315 42.9076 318.765 42.6781 318.811 42.8158C318.857 42.9535 319.117 43.3665 319.315 43.3665C319.514 43.3665 320.454 42.7546 320.46 42.5863C320.466 42.4181 319.866 41.7603 319.728 41.7113C319.591 41.6624 319.407 42.2131 319.407 42.2131Z" fill="#FFB8B8"/>
<path d="M318.829 41.8949C319.066 42.1156 319.322 42.3152 319.594 42.4915C319.686 42.4915 319.854 41.5981 319.854 41.5981C319.854 41.5981 319.309 41.2432 319.107 41.3411C318.905 41.439 318.829 41.8949 318.829 41.8949Z" fill="#FFB8B8"/>
<path d="M319.554 49.4211C319.279 49.0999 318.312 46.8053 318.312 46.53C318.301 46.4523 318.273 46.3781 318.229 46.3127L318.45 45.1073H317.838C317.534 45.0964 317.231 45.142 316.944 45.2419V45.2419L316.898 45.2603C316.747 45.3207 316.599 45.3923 316.458 45.4744C316.458 45.4744 315.265 45.8875 315.311 46.0251C315.357 46.1628 315.005 46.4841 315.005 46.637C314.953 47.4585 315.111 48.2796 315.464 49.0234C316.014 50.033 316.886 50.7673 316.473 51.2262C316.06 51.6851 315.418 52.4653 316.106 52.4653C316.794 52.4653 317.896 51.4557 318.905 51.8228C319.915 52.1899 319.686 50.8132 319.686 50.8132C319.686 50.8132 319.829 49.7424 319.554 49.4211Z" fill="#3F3D56"/>
<path d="M319.484 40.5488C319.349 40.5483 319.214 40.5401 319.08 40.5243C319.01 40.3067 318.876 40.1156 318.694 39.9767C318.577 39.8871 318.447 39.816 318.309 39.7656C318.003 39.6371 317.495 39.7166 317.464 39.8635C317.134 39.9754 316.94 40.3179 317.015 40.6589C317.11 40.8547 317.321 40.7691 317.492 40.6803C317.526 40.826 317.649 40.934 317.798 40.9496C318.104 40.9496 318.235 41.0842 318.162 41.2555C318.089 41.4268 318.003 41.8031 318.327 41.745C318.652 41.6869 318.749 41.8154 318.691 41.9133C318.633 42.0112 318.835 41.7175 318.835 41.7175C318.835 41.7175 319.013 41.9837 319.233 41.797C319.255 41.7754 319.271 41.7478 319.279 41.7175C319.348 41.7581 319.429 41.7723 319.508 41.7573C319.771 41.641 319.609 41.3656 319.609 41.3656C319.609 41.3656 319.958 41.3136 319.848 41.3198C319.738 41.3259 319.664 41.1821 319.848 40.922C320.031 40.662 319.658 40.5549 319.484 40.5488Z" fill="#2F2E41"/>
<path d="M317.449 40.6938L317.579 40.3019L317.71 40.3454L317.579 40.7373L317.449 40.6938Z" fill="#33CCB4"/>
<rect x="833.485" y="45.3" width="1" height="17.5184" fill="#808080"/>
<path d="M838.022 47.5365C838.049 53.6554 833.739 58.6485 833.739 58.6485C833.739 58.6485 829.382 53.7044 829.354 47.5763C829.327 41.4482 833.638 36.4644 833.638 36.4644C833.638 36.4644 837.985 41.3993 838.022 47.5365Z" fill="#33CCB4"/>
<rect x="827.721" y="45.3" width="1" height="17.5184" fill="#808080"/>
<path d="M832.258 47.5365C832.285 53.6554 827.974 58.6485 827.974 58.6485C827.974 58.6485 823.606 53.7013 823.606 47.5763C823.606 41.4513 827.889 36.4644 827.889 36.4644C827.889 36.4644 832.227 41.3993 832.258 47.5365Z" fill="#2BB673"/>
<path d="M767.734 43.7153L766.326 41.3717L779.464 30.1099H813.243V33.3957L801.045 46.53L786.969 49.3477L767.734 43.7153Z" fill="#2BB673"/>
<path d="M819.059 36.7183V29.3787H814.635V31.6916L813.243 30.1099L801.984 41.3717L800.106 43.2472L797.762 52.6305L801.984 62.9531H823.566V41.8398L819.059 36.7183Z" fill="#CCCCCC"/>
<rect x="766.326" y="41.3717" width="35.658" height="21.5814" fill="#F2F2F2"/>
<rect x="789.551" y="48.1729" width="7.50485" height="6.56865" fill="#808080"/>
<rect x="779.932" y="47.9373" width="6.56865" height="15.0128" fill="#CCCCCC"/>
<path d="M812.071 50.5195V48.1729H809.254V50.5195H811.836H812.071Z" fill="#808080"/>
<rect x="813.947" y="48.1729" width="2.8147" height="2.3466" fill="#808080"/>
<rect x="813.947" y="52.395" width="2.8147" height="2.3466" fill="#808080"/>
<path d="M772.161 50.2717V47.9251H769.346V50.2717H771.928H772.161Z" fill="#808080"/>
<path d="M771.928 52.1502H769.346V54.4938H772.161V52.1502H771.928Z" fill="#808080"/>
<rect x="774.039" y="47.9251" width="2.8147" height="2.3466" fill="#808080"/>
<rect x="774.039" y="52.1502" width="2.8147" height="2.3466" fill="#808080"/>
<path opacity="0.3" d="M966.109 36.3879C966.109 48.1943 957.542 52.3154 946.969 52.3154C936.396 52.3154 927.829 48.1943 927.829 36.3879C927.829 24.5814 946.969 9.55951 946.969 9.55951C946.969 9.55951 966.109 24.5723 966.109 36.3879Z" fill="#2BB673"/>
<path d="M946.268 50.5073L946.467 40.6252L954.624 28.3996L946.498 39.0741L946.584 34.6318L952.207 25.7899L946.608 33.4569V33.4569L946.767 25.4656L952.788 18.4258L946.792 24.2112L946.893 9.55951L946.268 28.9534L946.32 28.1549L940.198 20.4818L946.222 29.6907L945.65 38.6152L945.635 38.3765L938.577 30.2996L945.614 39.2148L945.54 40.3315L945.528 40.3468L945.534 40.4386L944.087 63.0786H946.021L946.253 51.3853L953.271 42.4946L946.268 50.5073Z" fill="#808080"/>
<path d="M965.534 43.7214L964.126 41.3778L977.264 30.116H1011.04V33.4018L998.845 46.5361L984.772 49.3538L965.534 43.7214Z" fill="#2BB673"/>
<path d="M1016.86 36.7244V29.3848H1012.44V31.6977L1011.04 30.116L999.784 41.3778L997.909 43.2533L995.562 52.6366L999.784 62.9592H1021.37V41.8459L1016.86 36.7244Z" fill="#CCCCCC"/>
<rect x="964.126" y="41.3779" width="35.658" height="21.5814" fill="#F2F2F2"/>
<rect x="987.351" y="48.179" width="7.50485" height="6.56865" fill="#808080"/>
<rect x="977.732" y="47.9434" width="6.56865" height="15.0128" fill="#CCCCCC"/>
<path d="M1009.87 50.5256V48.179H1007.06V50.5256H1009.64H1009.87Z" fill="#808080"/>
<rect x="1011.75" y="48.179" width="2.8147" height="2.3466" fill="#808080"/>
<rect x="1011.75" y="52.4011" width="2.8147" height="2.3466" fill="#808080"/>
<path d="M969.964 50.2778V47.9312H967.149V50.2778H969.728H969.964Z" fill="#808080"/>
<path d="M969.728 52.1533H967.149V54.4999H969.964V52.1533H969.728Z" fill="#808080"/>
<rect x="971.839" y="47.9312" width="2.8147" height="2.3466" fill="#808080"/>
<rect x="971.839" y="52.1533" width="2.8147" height="2.3466" fill="#808080"/>
<path d="M862.904 12.567L860.885 10.9546L872.181 0.870667H900.817V9.74309L882.261 22.2471L862.904 12.567Z" fill="#2BB673"/>
<path d="M906.037 6.52454V1.06953H902.237V2.40651L900.817 0.870667L891.541 10.9546L887.909 13.3716L882.28 54.4938L890.77 62.9837H910.497V11.3554L906.037 6.52454Z" fill="#CCCCCC"/>
<rect x="860.885" y="10.9515" width="30.6527" height="52.0291" fill="#F2F2F2"/>
<rect x="872.783" y="50.2778" width="5.64776" height="12.7059" fill="#CCCCCC"/>
<path d="M866.735 53.9094V51.8901H864.315V53.9094H866.533H866.735Z" fill="#808080"/>
<path d="M866.533 55.5217H864.315V57.5379H866.735V55.5217H866.533Z" fill="#808080"/>
<rect x="868.347" y="51.8901" width="2.42003" height="2.01618" fill="#808080"/>
<rect x="868.347" y="55.5217" width="2.42003" height="2.01618" fill="#808080"/>
<path d="M883.271 53.9094V51.8901H880.851V53.9094H883.069H883.271Z" fill="#808080"/>
<path d="M883.069 55.5217H880.851V57.5379H883.271V55.5217H883.069Z" fill="#808080"/>
<rect x="884.883" y="51.8901" width="2.42003" height="2.01618" fill="#808080"/>
<rect x="884.883" y="55.5217" width="2.42003" height="2.01618" fill="#808080"/>
<path d="M900.211 13.5735V11.5573H897.791V13.5735H900.009H900.211Z" fill="#808080"/>
<path d="M900.009 15.1889H897.791V17.2051H900.211V15.1889H900.009Z" fill="#808080"/>
<rect x="901.824" y="11.5573" width="2.42003" height="2.01618" fill="#808080"/>
<rect x="901.824" y="15.1889" width="2.42003" height="2.01618" fill="#808080"/>
<path d="M900.211 24.869V22.8528H897.791V24.869H900.009H900.211Z" fill="#808080"/>
<path d="M900.009 26.4814H897.791V28.4976H900.211V26.4814H900.009Z" fill="#808080"/>
<rect x="901.824" y="22.8528" width="2.42003" height="2.01618" fill="#808080"/>
<rect x="901.824" y="26.4814" width="2.42003" height="2.01618" fill="#808080"/>
<path d="M900.211 36.1615V34.1453H897.791V36.1615H900.009H900.211Z" fill="#808080"/>
<path d="M900.009 37.7738H897.791V39.79H900.211V37.7738H900.009Z" fill="#808080"/>
<rect x="901.824" y="34.1453" width="2.42003" height="2.01618" fill="#808080"/>
<rect x="901.824" y="37.7738" width="2.42003" height="2.01618" fill="#808080"/>
<path d="M900.211 47.4539V45.4377H897.791V47.4539H900.009H900.211Z" fill="#808080"/>
<path d="M900.009 49.0693H897.791V51.0855H900.211V49.0693H900.009Z" fill="#808080"/>
<rect x="901.824" y="45.4377" width="2.42003" height="2.01618" fill="#808080"/>
<rect x="901.824" y="49.0693" width="2.42003" height="2.01618" fill="#808080"/>
<rect x="864.315" y="13.5735" width="23.3926" height="4.84006" fill="#808080"/>
<rect x="864.315" y="23.2537" width="23.3926" height="4.84006" fill="#808080"/>
<rect x="864.315" y="32.9338" width="23.3926" height="4.84006" fill="#808080"/>
<rect x="864.315" y="42.6139" width="23.3926" height="4.84006" fill="#808080"/>
<path d="M916.016 49.1611H921.872V47.7507H925.103V49.1611H931.158V55.4208H925.103V63.2928H921.872V55.4208H916.016L912.991 51.9881L916.016 49.1611Z" fill="#808080"/>
<path d="M695.31 12.2855L693.294 10.6731L704.587 0.589172H733.223V9.4616L714.671 21.9656L695.31 12.2855Z" fill="#2BB673"/>
<path d="M738.443 6.24611V0.791096H734.643V2.12808L733.223 0.589172L723.947 10.6731L720.315 13.0932L714.686 54.2153L723.176 62.7023H742.903V11.077L738.443 6.24611Z" fill="#CCCCCC"/>
<rect x="693.291" y="10.6732" width="30.6527" height="52.0291" fill="#F2F2F2"/>
<rect x="705.192" y="49.9963" width="5.64776" height="12.7059" fill="#CCCCCC"/>
<path d="M699.141 53.6279V51.6118H696.721V53.6279H698.939H699.141Z" fill="#808080"/>
<path d="M698.939 55.2402H696.721V57.2564H699.141V55.2402H698.939Z" fill="#808080"/>
<rect x="700.753" y="51.6118" width="2.42003" height="2.01618" fill="#808080"/>
<rect x="700.753" y="55.2402" width="2.42003" height="2.01618" fill="#808080"/>
<path d="M715.677 53.6279V51.6118H713.257V53.6279H715.475H715.677Z" fill="#808080"/>
<path d="M715.475 55.2402H713.257V57.2564H715.677V55.2402H715.475Z" fill="#808080"/>
<rect x="717.289" y="51.6118" width="2.42003" height="2.01618" fill="#808080"/>
<rect x="717.289" y="55.2402" width="2.42003" height="2.01618" fill="#808080"/>
<path d="M732.617 13.2951V11.2789H730.197V13.2951H732.415H732.617Z" fill="#808080"/>
<path d="M732.415 14.9074H730.197V16.9236H732.617V14.9074H732.415Z" fill="#808080"/>
<rect x="734.23" y="11.2789" width="2.42003" height="2.01618" fill="#808080"/>
<rect x="734.23" y="14.9074" width="2.42003" height="2.01618" fill="#808080"/>
<path d="M732.617 24.5875V22.5714H730.197V24.5875H732.415H732.617Z" fill="#808080"/>
<path d="M732.415 26.1999H730.197V28.2191H732.617V26.1999H732.415Z" fill="#808080"/>
<rect x="734.23" y="22.5714" width="2.42003" height="2.01618" fill="#808080"/>
<rect x="734.23" y="26.1999" width="2.42003" height="2.01618" fill="#808080"/>
<path d="M732.617 35.88V33.8638H730.197V35.88H732.415H732.617Z" fill="#808080"/>
<path d="M732.415 37.4954H730.197V39.5116H732.617V37.4954H732.415Z" fill="#808080"/>
<rect x="734.23" y="33.8638" width="2.42003" height="2.01618" fill="#808080"/>
<rect x="734.23" y="37.4954" width="2.42003" height="2.01618" fill="#808080"/>
<path d="M732.617 47.1755V45.1594H730.197V47.1755H732.415H732.617Z" fill="#808080"/>
<path d="M732.415 48.7878H730.197V50.804H732.617V48.7878H732.415Z" fill="#808080"/>
<rect x="734.23" y="45.1563" width="2.42003" height="2.01618" fill="#808080"/>
<rect x="734.23" y="48.7878" width="2.42003" height="2.01618" fill="#808080"/>
<rect x="696.721" y="13.2951" width="23.3926" height="4.84006" fill="#808080"/>
<rect x="696.721" y="22.9752" width="23.3926" height="4.84006" fill="#808080"/>
<rect x="696.721" y="32.6553" width="23.3926" height="4.84006" fill="#808080"/>
<rect x="696.721" y="42.3354" width="23.3926" height="4.84006" fill="#808080"/>
<rect x="748.93" y="39.6982" width="1" height="22.9123" fill="#808080"/>
<path d="M754.863 42.62C754.899 50.6327 749.264 57.1524 749.264 57.1524C749.264 57.1524 743.567 50.6847 743.53 42.672C743.494 34.6593 749.129 28.1396 749.129 28.1396C749.129 28.1396 754.826 34.6073 754.863 42.62Z" fill="#2BB673"/>
<rect x="684.107" y="39.6982" width="1" height="22.9123" fill="#808080"/>
<path d="M690.039 42.62C690.076 50.6327 684.44 57.1524 684.44 57.1524C684.44 57.1524 678.743 50.6847 678.707 42.672C678.67 34.6593 684.306 28.1396 684.306 28.1396C684.306 28.1396 690.002 34.6073 690.039 42.62Z" fill="#2BB673"/>
<path d="M628.779 12.2855L626.76 10.6731L638.056 0.589172H666.692V9.4616L648.137 21.9656L628.779 12.2855Z" fill="#2BB673"/>
<path d="M671.912 6.24611V0.791096H668.112V2.12808L666.692 0.589172L657.416 10.6731L653.784 13.0932L648.155 54.2153L656.645 62.7023H676.372V11.077L671.912 6.24611Z" fill="#CCCCCC"/>
<rect x="626.76" y="10.6732" width="30.6527" height="52.0291" fill="#F2F2F2"/>
<rect x="638.658" y="49.9963" width="5.64776" height="12.7059" fill="#CCCCCC"/>
<path d="M632.61 53.6279V51.6118H630.19V53.6279H632.408H632.61Z" fill="#808080"/>
<path d="M632.408 55.2402H630.19V57.2564H632.61V55.2402H632.408Z" fill="#808080"/>
<rect x="634.222" y="51.6118" width="2.42003" height="2.01618" fill="#808080"/>
<rect x="634.222" y="55.2402" width="2.42003" height="2.01618" fill="#808080"/>
<path d="M649.146 53.6279V51.6118H646.726V53.6279H648.944H649.146Z" fill="#808080"/>
<path d="M648.944 55.2402H646.726V57.2564H649.146V55.2402H648.944Z" fill="#808080"/>
<rect x="650.759" y="51.6118" width="2.42003" height="2.01618" fill="#808080"/>
<rect x="650.759" y="55.2402" width="2.42003" height="2.01618" fill="#808080"/>
<path d="M666.086 13.2951V11.2789H663.666V13.2951H665.885H666.086Z" fill="#808080"/>
<path d="M665.885 14.9074H663.666V16.9236H666.086V14.9074H665.885Z" fill="#808080"/>
<rect x="667.699" y="11.2789" width="2.42003" height="2.01618" fill="#808080"/>
<rect x="667.699" y="14.9074" width="2.42003" height="2.01618" fill="#808080"/>
<path d="M666.086 24.5875V22.5714H663.666V24.5875H665.885H666.086Z" fill="#808080"/>
<path d="M665.885 26.1999H663.666V28.2191H666.086V26.1999H665.885Z" fill="#808080"/>
<rect x="667.699" y="22.5714" width="2.42003" height="2.01618" fill="#808080"/>
<rect x="667.699" y="26.1999" width="2.42003" height="2.01618" fill="#808080"/>
<path d="M666.086 35.88V33.8638H663.666V35.88H665.885H666.086Z" fill="#808080"/>
<path d="M665.885 37.4954H663.666V39.5116H666.086V37.4954H665.885Z" fill="#808080"/>
<rect x="667.699" y="33.8638" width="2.42003" height="2.01618" fill="#808080"/>
<rect x="667.699" y="37.4954" width="2.42003" height="2.01618" fill="#808080"/>
<path d="M666.086 47.1755V45.1594H663.666V47.1755H665.885H666.086Z" fill="#808080"/>
<path d="M665.885 48.7878H663.666V50.804H666.086V48.7878H665.885Z" fill="#808080"/>
<rect x="667.699" y="45.1563" width="2.42003" height="2.01618" fill="#808080"/>
<rect x="667.699" y="48.7878" width="2.42003" height="2.01618" fill="#808080"/>
<rect x="630.19" y="13.2951" width="23.3926" height="4.84006" fill="#808080"/>
<rect x="630.19" y="22.9752" width="23.3926" height="4.84006" fill="#808080"/>
<rect x="630.19" y="32.6553" width="23.3926" height="4.84006" fill="#808080"/>
<rect x="630.19" y="42.3354" width="23.3926" height="4.84006" fill="#808080"/>
<rect x="401.795" y="39.6982" width="1" height="22.9123" fill="#808080"/>
<path d="M407.728 42.62C407.764 50.6327 402.129 57.1524 402.129 57.1524C402.129 57.1524 396.432 50.6847 396.395 42.672C396.359 34.6593 401.994 28.1396 401.994 28.1396C401.994 28.1396 407.691 34.6073 407.728 42.62Z" fill="#2BB673"/>
<path d="M937.956 62.8216H937.319H843.703H840.916H745.274H738.721H499.643H493.142H253.032H247.507H0.899483V63.2622H247.507H253.032H493.142H499.643H738.721H745.274H840.916H843.703H937.319H937.956H1023.87V62.8216H937.956Z" fill="#808080"/>
<rect x="954.015" y="45.3" width="1" height="17.5184" fill="#808080"/>
<path d="M954.287 36.4644C954.287 36.4644 958.598 41.4482 958.57 47.5763C958.543 53.7044 954.186 58.6362 954.186 58.6362C954.186 58.6362 949.875 53.6493 949.903 47.5243C949.931 41.3993 954.287 36.4644 954.287 36.4644Z" fill="#2BB673"/>
<path d="M558.654 43.547L557.246 41.2004L570.384 29.9416H604.163V33.2244L591.965 46.3617L577.888 49.1764L558.654 43.547Z" fill="#2BB673"/>
<path d="M609.976 36.547V29.2073H605.555V31.5233L604.163 29.9416L592.904 41.2004L591.026 43.0759L588.679 52.4623L592.904 62.7818H614.483V41.6685L609.976 36.547Z" fill="#CCCCCC"/>
<rect x="557.246" y="41.2004" width="35.658" height="21.5814" fill="#F2F2F2"/>
<rect x="580.471" y="48.0046" width="7.50485" height="6.56865" fill="#808080"/>
<rect x="570.852" y="47.769" width="6.56865" height="15.0128" fill="#CCCCCC"/>
<path d="M563.344 50.1156V47.769H560.529V50.1156H563.111H563.344Z" fill="#808080"/>
<path d="M563.111 51.9911H560.529V54.3377H563.344V51.9911H563.111Z" fill="#808080"/>
<rect x="565.222" y="47.769" width="2.8147" height="2.3466" fill="#808080"/>
<rect x="565.222" y="51.9911" width="2.8147" height="2.3466" fill="#808080"/>
<path d="M602.991 50.3512V48.0046H600.174V50.3512H602.756H602.991Z" fill="#808080"/>
<rect x="604.867" y="48.0046" width="2.8147" height="2.3466" fill="#808080"/>
<rect x="604.867" y="52.2267" width="2.8147" height="2.3466" fill="#808080"/>
<path d="M412.693 43.547L411.286 41.2004L424.423 29.9416H458.203V33.2244L446.004 46.3617L431.931 49.1764L412.693 43.547Z" fill="#2BB673"/>
<path d="M464.019 36.547V29.2073H459.595V31.5233L458.203 29.9416L446.944 41.2004L445.065 43.0759L442.722 52.4623L446.944 62.7818H468.525V41.6685L464.019 36.547Z" fill="#CCCCCC"/>
<rect x="411.286" y="41.2004" width="35.658" height="21.5814" fill="#F2F2F2"/>
<rect x="434.51" y="48.0046" width="7.50485" height="6.56865" fill="#808080"/>
<rect x="424.891" y="47.769" width="6.56865" height="15.0128" fill="#CCCCCC"/>
<path d="M417.386 50.1156V47.769H414.569V50.1156H417.151H417.386Z" fill="#808080"/>
<path d="M417.151 51.9911H414.569V54.3377H417.386V51.9911H417.151Z" fill="#808080"/>
<rect x="419.262" y="47.769" width="2.8147" height="2.3466" fill="#808080"/>
<rect x="419.262" y="51.9911" width="2.8147" height="2.3466" fill="#808080"/>
<path d="M457.031 50.3512V48.0046H454.216V50.3512H456.795H457.031Z" fill="#808080"/>
<rect x="458.906" y="48.0046" width="2.8147" height="2.3466" fill="#808080"/>
<rect x="458.906" y="52.2267" width="2.8147" height="2.3466" fill="#808080"/>
<path d="M336.494 43.6021L335.087 41.2555L348.224 29.9967H382.004V33.2795L369.806 46.4168L355.732 49.2315L336.494 43.6021Z" fill="#2BB673"/>
<path d="M387.82 36.6051V29.2624H383.396V31.5784L382.004 29.9967L370.745 41.2555L368.869 43.134L366.523 52.5173L370.745 62.8399H392.326V41.7266L387.82 36.6051Z" fill="#CCCCCC"/>
<rect x="335.087" y="41.2555" width="35.658" height="21.5814" fill="#F2F2F2"/>
<rect x="358.311" y="48.0597" width="7.50485" height="6.56865" fill="#808080"/>
<rect x="348.692" y="47.8241" width="6.56865" height="15.0128" fill="#CCCCCC"/>
<path d="M341.188 50.1707V47.8241H338.37V50.1707H340.952H341.188Z" fill="#808080"/>
<path d="M340.952 52.0462H338.37V54.3928H341.188V52.0462H340.952Z" fill="#808080"/>
<rect x="343.063" y="47.8241" width="2.8147" height="2.3466" fill="#808080"/>
<rect x="343.063" y="52.0462" width="2.8147" height="2.3466" fill="#808080"/>
<path d="M380.832 50.4063V48.0597H378.017V50.4063H380.596H380.832Z" fill="#808080"/>
<rect x="382.707" y="48.0597" width="2.8147" height="2.3466" fill="#808080"/>
<rect x="382.707" y="52.2817" width="2.8147" height="2.3466" fill="#808080"/>
<path d="M110.673 43.6021L109.265 41.2555L122.403 29.9967H156.182V33.2795L143.984 46.4168L129.908 49.2315L110.673 43.6021Z" fill="#2BB673"/>
<path d="M161.995 36.6051V29.2624H157.574V31.5784L156.182 29.9967L144.923 41.2555L143.045 43.134L140.698 52.5173L144.923 62.8399H166.502V41.7266L161.995 36.6051Z" fill="#CCCCCC"/>
<rect x="109.265" y="41.2555" width="35.658" height="21.5814" fill="#F2F2F2"/>
<rect x="132.49" y="48.0597" width="7.50485" height="6.56865" fill="#808080"/>
<rect x="122.871" y="47.8241" width="6.56865" height="15.0128" fill="#CCCCCC"/>
<path d="M115.363 50.1707V47.8241H112.548V50.1707H115.13H115.363Z" fill="#808080"/>
<path d="M115.13 52.0462H112.548V54.3928H115.363V52.0462H115.13Z" fill="#808080"/>
<rect x="117.241" y="47.8241" width="2.8147" height="2.3466" fill="#808080"/>
<rect x="117.241" y="52.0462" width="2.8147" height="2.3466" fill="#808080"/>
<path d="M155.01 50.4063V48.0597H152.193V50.4063H154.775H155.01Z" fill="#808080"/>
<rect x="156.886" y="48.0597" width="2.8147" height="2.3466" fill="#808080"/>
<rect x="156.886" y="52.2817" width="2.8147" height="2.3466" fill="#808080"/>
<path d="M172.942 47.9801C172.969 54.099 168.659 59.0921 168.659 59.0921C168.659 59.0921 164.293 54.1449 164.274 48.0199C164.256 41.8949 168.558 36.908 168.558 36.908C168.558 36.908 172.914 41.8429 172.942 47.9801Z" fill="#2BB673"/>
<path d="M99.261 47.683C99.8473 47.683 100.323 47.2353 100.323 46.683C100.323 46.1307 99.8473 45.683 99.261 45.683C98.6747 45.683 98.1994 46.1307 98.1994 46.683C98.1994 47.2353 98.6747 47.683 99.261 47.683Z" fill="#2F2E41"/>
<path d="M96.1679 52.8814L95.8987 53.2577C95.8987 53.2577 94.6076 53.527 95.091 53.9308C95.5744 54.3347 96.275 53.5545 96.275 53.5545L96.6513 53.0711L96.1679 52.8814Z" fill="#FFB8B8"/>
<path d="M97.5691 48.6074C97.5691 48.6074 97.2203 48.6074 97.1377 49.0908C97.0551 49.5741 96.9756 51.1895 96.9756 51.1895C96.9756 51.1895 95.8466 52.6673 96.0333 52.8569C96.2199 53.0466 96.4371 53.3954 96.5717 53.3403C96.7064 53.2853 97.8628 51.7005 97.8628 51.7005L97.5691 48.6074Z" fill="#4285F4"/>
<path opacity="0.1" d="M97.5691 48.6074C97.5691 48.6074 97.2203 48.6074 97.1377 49.0908C97.0551 49.5741 96.9756 51.1895 96.9756 51.1895C96.9756 51.1895 95.8466 52.6673 96.0333 52.8569C96.2199 53.0466 96.4371 53.3954 96.5717 53.3403C96.7064 53.2853 97.8628 51.7005 97.8628 51.7005L97.5691 48.6074Z" fill="black"/>
<path d="M98.643 47.2336C98.643 47.2336 98.6154 48.283 98.2942 48.335C97.973 48.3871 98.08 48.7389 98.08 48.7389C98.08 48.7389 99.1294 49.3508 99.827 48.7389L99.9616 48.4177C99.6936 48.232 99.5832 47.8897 99.6924 47.5824L98.643 47.2336Z" fill="#FFB8B8"/>
<path d="M96.841 53.6891C96.841 53.6891 95.2531 56.6476 95.8466 57.5624C96.4402 58.4771 97.3244 60.3587 97.459 60.3587C97.5936 60.3587 98.3462 59.9824 98.2942 59.7468C98.2422 59.5112 97.4345 57.7031 97.2173 57.5409C97.0001 57.3788 97.1102 56.9505 97.1377 56.9291C97.1653 56.9076 98.0556 55.4758 98.0556 55.4758C98.0556 55.4758 98.028 57.7337 98.1351 58.0855C98.2422 58.4374 98.1076 60.9369 98.2422 61.044C98.3768 61.1511 98.9948 61.35 99.1019 61.1786C99.209 61.0073 99.5333 58.5689 99.3161 58.006L99.7199 54.1327L96.841 53.6891Z" fill="#2F2E41"/>
<path d="M98.2942 60.8696L97.6211 62.0934C97.6211 62.0934 96.6543 62.794 97.3152 62.9011C97.682 62.9757 98.0635 62.9183 98.3921 62.739L98.9826 62.3076V61.0838L98.2942 60.8696Z" fill="#2F2E41"/>
<path d="M97.3794 60.166L97.7282 61.0012C97.7282 61.0012 97.8628 61.35 97.7282 61.4326C97.5936 61.5152 97.2173 61.9986 97.459 62.0445C97.5078 62.049 97.557 62.049 97.6058 62.0445C98.0132 62.051 98.4056 61.8907 98.6919 61.6009L98.9092 61.3836C98.9092 61.3836 98.1627 59.6642 98.1718 59.6765C98.181 59.6887 97.3794 60.166 97.3794 60.166Z" fill="#2F2E41"/>
<path d="M99.3161 47.9644C99.8684 47.9644 100.316 47.5167 100.316 46.9644C100.316 46.4121 99.8684 45.9644 99.3161 45.9644C98.7638 45.9644 98.3161 46.4121 98.3161 46.9644C98.3161 47.5167 98.7638 47.9644 99.3161 47.9644Z" fill="#FFB8B8"/>
<path d="M99.8392 48.2341L99.5578 48.5155C99.5578 48.5155 98.6981 48.8368 98.2942 48.5155C98.3376 48.4189 98.3867 48.3249 98.4411 48.2341C98.4411 48.2616 97.2724 48.436 97.1622 48.9194C97.115 49.3603 97.1419 49.806 97.2418 50.238C97.2418 50.238 96.4891 53.787 96.7859 53.8696C97.0827 53.9522 99.8454 54.6222 99.8239 54.1113C99.8025 53.6004 100.038 51.5016 100.038 51.5016L100.98 49.6995C100.98 49.6995 100.846 49.1091 100.525 48.9194C100.261 48.7288 100.03 48.4975 99.8392 48.2341V48.2341Z" fill="#4285F4"/>
<path d="M98.643 53.5025L98.2942 53.7167C98.2942 53.7167 96.948 54.6345 97.6487 54.7936C98.3493 54.9527 98.7501 54.148 98.7501 54.148L99.0193 53.8268L98.643 53.5025Z" fill="#FFB8B8"/>
<path opacity="0.1" d="M100.635 49.5466L100.876 49.7883C100.876 49.7883 101.039 52.0462 100.714 52.5051C100.39 52.964 98.9122 54.2001 98.8327 54.1175C98.7531 54.0349 98.2422 53.6341 98.3493 53.579C98.4564 53.5239 99.879 52.0309 99.879 52.0309L99.7658 49.9474L100.635 49.5466Z" fill="black"/>
<path d="M100.742 49.4579L100.983 49.6996C100.983 49.6996 101.146 51.9575 100.821 52.4164C100.497 52.8753 99.0193 54.1113 98.9398 54.0287C98.8602 53.9461 98.3493 53.5453 98.4564 53.4902C98.5634 53.4352 99.9861 51.9422 99.9861 51.9422L99.8729 49.8587L100.742 49.4579Z" fill="#4285F4"/>
<path d="M98.9367 45.6672C98.6847 45.6062 98.4187 45.6528 98.2024 45.7957L98.4288 45.8508C98.4288 45.8508 98.0892 45.8783 98.0464 46.3311H98.2085C98.2085 46.3311 98.1106 46.7258 98.2085 46.839L98.2728 46.7197L98.4564 47.0868L98.4992 46.9033L98.5849 46.9308L98.6399 46.6249C98.6399 46.6249 98.7807 46.836 98.8939 46.8513V46.6677C98.8939 46.6677 99.1998 47.0195 99.3038 47.0073L99.1631 46.8084L99.362 46.8513L99.2763 46.7105L99.7842 46.8513L99.671 46.7105L100.023 46.8237L100.191 46.8941C100.32 46.5919 100.283 46.2444 100.093 45.9762C99.8192 45.6277 99.348 45.5018 98.9367 45.6672Z" fill="#2F2E41"/>
<path d="M503.544 43.5868L505.45 43.2136C505.45 43.2136 505.915 41.6349 506.472 41.8184C507.028 42.002 506.098 43.5837 506.098 43.5837L503.449 44.7922L503.544 43.5868Z" fill="#A0616A"/>
<path d="M491.961 45.1746L491.125 46.2363C491.125 46.2363 489.917 46.1904 490.29 46.8481C490.663 47.5059 491.499 47.1266 491.544 46.9889C491.985 46.5159 492.451 46.0666 492.94 45.6427L491.961 45.1746Z" fill="#A0616A"/>
<path d="M495.39 43.9325L496.088 43.5593C496.088 43.5593 499.062 43.3237 500.178 44.0702C501.295 44.8167 495.485 44.9054 495.485 44.9054L495.39 43.9325Z" fill="#6C63FF"/>
<path d="M496.715 43.2594C496.715 43.2594 496.342 42.3783 496.856 42.2835C497.147 42.2266 497.446 42.2266 497.737 42.2835L497.18 42.7485L496.715 43.2594Z" fill="#808080"/>
<path opacity="0.1" d="M496.715 43.2594C496.715 43.2594 496.342 42.3783 496.856 42.2835C497.147 42.2266 497.446 42.2266 497.737 42.2835L497.18 42.7485L496.715 43.2594Z" fill="black"/>
<path d="M494.163 48.6043L492.817 48.5125L493.053 48.9317C493.053 48.9317 491.196 49.4885 491.798 51.0733C492.222 52.1341 492.734 53.1575 493.328 54.1327L493.94 55.2923C493.94 55.2923 495.194 55.4789 495.24 55.1056C495.286 54.7324 495.24 54.5488 495.005 54.3622C494.791 54.1704 494.658 53.9048 494.631 53.6187C494.631 53.4321 494.677 53.2455 494.54 53.1537C494.402 53.0619 494.353 52.9181 494.353 52.6428C494.353 52.3674 493.842 51.3425 493.842 51.3425C493.842 51.3425 495.47 51.2966 495.984 51.7158C496.498 52.1349 498.168 53.7136 498.168 53.7136C498.256 53.8139 498.329 53.9262 498.385 54.0471C498.477 54.2337 498.477 54.3255 498.664 54.4203C498.85 54.5152 498.71 54.8854 498.664 54.9313C498.618 54.9771 498.153 56.8373 498.153 56.8373C498.153 56.8373 497.642 57.7184 498.199 57.7551C498.756 57.7918 499.26 57.8469 499.312 57.7551C499.364 57.6258 499.427 57.5009 499.499 57.3819C499.573 57.1396 499.573 56.8807 499.499 56.6384C499.499 56.6384 500.845 54.919 500.417 53.8513C499.989 52.7835 499.117 50.3665 499.117 50.3665L497.77 49.8097L495.323 48.9286L494.163 48.6043Z" fill="#2F2E41"/>
<path d="M494.065 55.0597C494.065 55.0597 493.787 56.1214 493.692 56.1734C493.597 56.2254 492.579 57.0912 493.273 57.235C493.968 57.3788 494.482 57.3268 494.619 57.1891C494.757 57.0514 494.711 56.9107 494.944 56.8648C495.176 56.8189 495.595 56.6782 495.555 56.3539C495.516 56.0296 495.277 55.1454 495.136 55.0536C494.996 54.9618 494.065 55.0597 494.065 55.0597Z" fill="#2F2E41"/>
<path d="M498.107 57.4308C497.852 57.6639 497.777 58.0347 497.92 58.3487C498.153 58.9606 498.477 59.6031 498.477 59.6031C498.477 59.6031 498.85 60.7626 499.453 60.579C499.675 60.5012 499.838 60.3111 499.881 60.0803C499.968 59.7469 499.907 59.3922 499.713 59.1074L499.361 58.5751L498.988 57.5991L498.107 57.4308Z" fill="#2F2E41"/>
<path d="M496.947 43.7734C496.947 43.7734 496.391 43.7275 496.296 43.8652C496.201 44.0029 495.785 45.863 496.296 46.0496C496.807 46.2363 498.34 46.5606 498.572 46.328C498.805 46.0955 498.896 44.0518 498.896 44.0518L496.947 43.7734Z" fill="#A0616A"/>
<path opacity="0.1" d="M496.947 43.7734C496.947 43.7734 496.391 43.7275 496.296 43.8652C496.201 44.0029 495.785 45.863 496.296 46.0496C496.807 46.2363 498.34 46.5606 498.572 46.328C498.805 46.0955 498.896 44.0518 498.896 44.0518L496.947 43.7734Z" fill="black"/>
<path d="M496.109 45.3062C496.109 45.3062 496.761 45.9578 497.171 45.863C497.581 45.7682 498.566 45.3521 498.658 45.1654C498.75 44.9788 499.912 44.9299 499.912 44.9299L498.658 48.4146L499.539 51.3425C499.539 51.3425 500.05 50.7306 498.658 50.6908C497.266 50.6511 495.406 49.9474 495.081 49.0173C495.081 49.0173 493.037 48.7389 492.94 48.693C492.842 48.6471 493.175 48.3687 493.175 48.3687L494.521 47.9954L495.497 46.7411L496.109 45.3062Z" fill="#F2F2F2"/>
<path d="M496.525 43.8652C496.525 43.8652 496.761 43.5409 496.525 43.5409C496.153 43.533 495.782 43.5484 495.412 43.5868C495.176 43.6327 494.298 43.4001 494.203 43.6785C494.108 43.957 494.111 45.6764 494.295 45.8202C494.478 45.964 494.573 45.9609 494.341 46.2393C494.108 46.5177 493.551 47.4478 493.689 47.769C493.827 48.0903 492.202 48.1882 492.435 48.5584C492.564 48.777 492.793 48.9169 493.047 48.9316C493.047 48.9316 493.138 48.1882 493.698 48.5584C494.258 48.9286 494.999 49.8587 495.604 49.2559C496.154 48.7538 496.472 48.048 496.485 47.304C496.534 46.7141 496.504 46.1203 496.394 45.5387C496.296 45.0737 496.525 43.8652 496.525 43.8652Z" fill="#FF6600"/>
<path d="M498.945 44.7463C498.945 44.7463 499.319 45.0706 498.945 45.86C498.572 46.6493 497.599 48.5095 498.388 49.7149C499.178 50.9203 499.502 51.2446 499.306 51.4802C499.194 51.6277 499.129 51.8059 499.12 51.9911L499.631 51.8045C499.688 51.4217 499.783 51.0456 499.915 50.6817C500.102 50.2166 499.542 48.8246 499.542 48.8246L499.729 47.0134C499.986 46.5966 500.265 46.1933 500.564 45.8049C500.656 45.759 500.377 43.7612 500.377 43.7612C500.151 43.6867 499.906 43.6867 499.68 43.7612C499.456 43.9111 498.945 44.7463 498.945 44.7463Z" fill="#FF6600"/>
<path d="M494.485 43.7245H494.206L492.3 44.7005C492.3 44.7005 492.159 44.0886 492.065 44.2354C491.97 44.3823 492.019 44.7463 491.786 44.8473C491.554 44.9483 491.413 45.0829 491.786 45.2665C492.159 45.45 492.205 45.3123 492.205 45.6397C492.205 45.9671 492.484 46.013 492.716 45.9181C492.949 45.8233 492.995 45.7774 493.227 45.8722C493.46 45.9671 493.319 46.1078 493.646 45.964C494.026 45.8729 494.417 45.8419 494.806 45.8722L494.485 43.7245Z" fill="#C76600"/>
<path d="M500.059 43.8652L500.383 43.7734C500.383 43.7734 501.359 43.8652 501.592 43.8652C501.824 43.8652 502.057 43.8193 502.204 43.8193C502.517 43.805 502.827 43.7421 503.121 43.6327C503.213 43.5409 503.632 43.3084 503.678 43.4461C503.724 43.5837 504.235 44.4679 503.77 44.8871C503.305 45.3062 503.213 45.1226 502.935 45.3062C502.656 45.4898 500.426 45.863 500.38 45.8171C500.334 45.7712 500.059 43.8652 500.059 43.8652Z" fill="#C76600"/>
<path d="M498.156 45.6305C498.926 45.6305 499.551 45.0059 499.551 44.2354C499.551 43.4649 498.926 42.8403 498.156 42.8403C497.385 42.8403 496.761 43.4649 496.761 44.2354C496.761 45.0059 497.385 45.6305 498.156 45.6305Z" fill="#A0616A"/>
<path d="M497.128 44.2966C497.143 44.3271 497.153 44.3604 497.156 44.3945C497.194 44.5594 497.341 44.6761 497.51 44.6759C497.498 44.7323 497.508 44.7915 497.539 44.8403C497.57 44.8891 497.619 44.9236 497.676 44.936H497.7C497.794 44.8158 497.865 44.6788 497.908 44.5321C497.919 44.4743 497.943 44.4198 497.979 44.3731C498.034 44.3257 498.104 44.2996 498.177 44.2996C498.549 44.252 498.923 44.2244 499.297 44.217C499.348 44.2204 499.399 44.2099 499.444 44.1864C499.548 44.1191 499.514 43.9508 499.444 43.8499C499.313 43.643 499.114 43.4883 498.881 43.4124C498.712 43.3669 498.539 43.3382 498.364 43.3267C498.132 43.2894 497.898 43.2648 497.663 43.2533C497.427 43.2427 497.193 43.3057 496.993 43.4338C496.853 43.5317 496.626 43.8071 496.736 43.9814C496.755 44.009 496.81 44.0243 496.834 44.0518C496.859 44.0793 496.868 44.1497 496.905 44.1834C496.941 44.217 497.079 44.217 497.128 44.2966Z" fill="#2F2E41"/>
<path d="M498.156 41.9133C498.156 41.9133 496.577 42.4701 496.715 43.2594C496.853 44.0488 497.272 44.9788 498.156 44.933C499.04 44.8871 499.502 43.9264 499.502 43.9264L499.267 42.6108C499.267 42.6108 498.385 41.9133 498.156 41.9133Z" fill="#808080"/>
<path d="M497.954 44.7004C497.954 44.7004 498.566 44.0273 498.887 44.4159C498.568 44.4813 498.255 44.5765 497.954 44.7004Z" fill="#2F2E41"/>
<path d="M499.126 61.9282C498.036 61.9146 497 61.4545 496.259 60.6555C493.812 58.2079 491.465 57.9693 491.444 57.9662V57.8775C491.468 57.8775 493.836 58.1284 496.317 60.5943C497.593 61.8609 498.909 61.9374 499.79 61.7752C500.371 61.6701 500.925 61.4473 501.417 61.1205L501.472 61.194C500.97 61.528 500.405 61.756 499.811 61.864C499.585 61.9057 499.356 61.9272 499.126 61.9282V61.9282Z" fill="#2F2E41"/>
<path d="M492.695 60.3583C493.247 60.3583 493.695 59.9106 493.695 59.3583C493.695 58.806 493.247 58.3583 492.695 58.3583C492.143 58.3583 491.695 58.806 491.695 59.3583C491.695 59.9106 492.143 60.3583 492.695 60.3583Z" fill="#2F2E41"/>
<path d="M496.645 62.9588C497.197 62.9588 497.645 62.5111 497.645 61.9588C497.645 61.4065 497.197 60.9588 496.645 60.9588C496.092 60.9588 495.645 61.4065 495.645 61.9588C495.645 62.5111 496.092 62.9588 496.645 62.9588Z" fill="#2F2E41"/>
</svg>
